<svg xmlns="http://www.w3.org/2000/svg" width="656" height="1248" class="svgbob">
  <style>.svgbob line, .svgbob path, .svgbob circle, .svgbob rect, .svgbob polygon {
  stroke: black;
  stroke-width: 2;
  stroke-opacity: 1;
  fill-opacity: 1;
  stroke-linecap: round;
  stroke-linejoin: miter;
}

.svgbob text {
  white-space: pre;
  fill: black;
  font-family: Iosevka Fixed, monospace;
  font-size: 14px;
}

.svgbob rect.backdrop {
  stroke: none;
  fill: white;
}

.svgbob .broken {
  stroke-dasharray: 8;
}

.svgbob .filled {
  fill: black;
}

.svgbob .bg_filled {
  fill: white;
  stroke-width: 1;
}

.svgbob .nofill {
  fill: white;
}

.svgbob .end_marked_arrow {
  marker-end: url(#arrow);
}

.svgbob .start_marked_arrow {
  marker-start: url(#arrow);
}

.svgbob .end_marked_diamond {
  marker-end: url(#diamond);
}

.svgbob .start_marked_diamond {
  marker-start: url(#diamond);
}

.svgbob .end_marked_circle {
  marker-end: url(#circle);
}

.svgbob .start_marked_circle {
  marker-start: url(#circle);
}

.svgbob .end_marked_open_circle {
  marker-end: url(#open_circle);
}

.svgbob .start_marked_open_circle {
  marker-start: url(#open_circle);
}

.svgbob .end_marked_big_open_circle {
  marker-end: url(#big_open_circle);
}

.svgbob .start_marked_big_open_circle {
  marker-start: url(#big_open_circle);
}

</style>
  <defs>
    <marker id="arrow" viewBox="-2 -2 8 8" refX="4" refY="2" markerWidth="7" markerHeight="7" orient="auto-start-reverse">
      <polygon points="0,0 0,4 4,2 0,0"></polygon>
    </marker>
    <marker id="diamond" viewBox="-2 -2 8 8" refX="4" refY="2" markerWidth="7" markerHeight="7" orient="auto-start-reverse">
      <polygon points="0,2 2,0 4,2 2,4 0,2"></polygon>
    </marker>
    <marker id="circle" viewBox="0 0 8 8" refX="4" refY="4" markerWidth="7" markerHeight="7" orient="auto-start-reverse">
      <circle cx="4" cy="4" r="2" class="filled"></circle>
    </marker>
    <marker id="open_circle" viewBox="0 0 8 8" refX="4" refY="4" markerWidth="7" markerHeight="7" orient="auto-start-reverse">
      <circle cx="4" cy="4" r="2" class="bg_filled"></circle>
    </marker>
    <marker id="big_open_circle" viewBox="0 0 8 8" refX="4" refY="4" markerWidth="7" markerHeight="7" orient="auto-start-reverse">
      <circle cx="4" cy="4" r="3" class="bg_filled"></circle>
    </marker>
  </defs>
  <rect class="backdrop" x="0" y="0" width="656" height="1248"></rect>
  <rect x="196" y="232" width="256" height="96" class="solid nofill" rx="0"></rect>
  <text x="226" y="252" >Claude</text>
  <text x="282" y="252" >Code</text>
  <line x1="328" y1="240" x2="320" y2="256" class="solid"></line>
  <text x="338" y="252" >AI</text>
  <text x="362" y="252" >Agent</text>
  <line x1="224" y1="264" x2="232" y2="264" class="solid"></line>
  <text x="242" y="268" >Parse</text>
  <text x="290" y="268" >source</text>
  <text x="346" y="268" >artifacts</text>
  <line x1="224" y1="280" x2="232" y2="280" class="solid"></line>
  <text x="242" y="284" >Extract</text>
  <text x="306" y="284" >domain</text>
  <text x="362" y="284" >model</text>
  <line x1="224" y1="296" x2="232" y2="296" class="solid"></line>
  <text x="242" y="300" >Identify</text>
  <text x="314" y="300" >business</text>
  <text x="386" y="300" >rules</text>
  <line x1="224" y1="312" x2="232" y2="312" class="solid"></line>
  <text x="242" y="316" >Map</text>
  <text x="274" y="316" >UI</text>
  <text x="298" y="316" >patterns</text>
  <rect x="52" y="920" width="560" height="96" class="solid nofill" rx="0"></rect>
  <text x="66" y="940" >Language</text>
  <text x="138" y="940" >Server</text>
  <text x="194" y="940" >validates</text>
  <text x="274" y="940" >MDL</text>
  <text x="306" y="940" >syntax</text>
  <text x="66" y="956" >REPL</text>
  <text x="106" y="956" >executes</text>
  <text x="178" y="956" >against</text>
  <text x="242" y="956" >Mendix</text>
  <text x="298" y="956" >model</text>
  <text x="66" y="972" >Studio</text>
  <text x="122" y="972" >Pro</text>
  <text x="154" y="972" >shows</text>
  <text x="202" y="972" >visual</text>
  <text x="258" y="972" >result</text>
  <text x="66" y="988" >Human</text>
  <text x="114" y="988" >reviews</text>
  <text x="178" y="988" >and</text>
  <text x="210" y="988" >adjusts</text>
  <text x="66" y="1004" >AI</text>
  <text x="90" y="1004" >iterates</text>
  <text x="162" y="1004" >based</text>
  <text x="210" y="1004" >on</text>
  <text x="234" y="1004" >feedback</text>
  <rect x="52" y="1128" width="112" height="64" class="solid nofill" rx="0"></rect>
  <text x="82" y="1148" >Deploy</text>
  <text x="82" y="1164" >to</text>
  <text x="106" y="1164" >Test</text>
  <text x="82" y="1180" >Env</text>
  <rect x="188" y="1128" width="112" height="64" class="solid nofill" rx="0"></rect>
  <text x="218" y="1148" >Test</text>
  <text x="218" y="1164" >with</text>
  <text x="218" y="1180" >Legacy</text>
  <rect x="324" y="1128" width="112" height="64" class="solid nofill" rx="0"></rect>
  <text x="346" y="1148" >Compare</text>
  <text x="354" y="1164" >Output</text>
  <text x="354" y="1180" >Parity</text>
  <rect x="460" y="1128" width="112" height="64" class="solid nofill" rx="0"></rect>
  <text x="490" y="1148" >Go</text>
  <text x="514" y="1148" >Live</text>
  <text x="490" y="1164" >with</text>
  <text x="490" y="1180" >Confidence</text>
  <text x="170" y="28" >AI</text>
  <line x1="184" y1="24" x2="192" y2="24" class="solid"></line>
  <text x="194" y="28" >Assisted</text>
  <text x="266" y="28" >Legacy</text>
  <text x="322" y="28" >Migration</text>
  <text x="402" y="28" >Pipeline</text>
  <line x1="636" y1="16" x2="636" y2="48" class="solid"></line>
  <line x1="628" y1="48" x2="628" y2="192" class="solid"></line>
  <text x="226" y="76" >1.</text>
  <text x="250" y="76" >ANALYZE</text>
  <line x1="636" y1="64" x2="636" y2="96" class="solid"></line>
  <line x1="620" y1="96" x2="620" y2="160" class="solid"></line>
  <line x1="636" y1="160" x2="636" y2="336" class="solid"></line>
  <line x1="644" y1="192" x2="644" y2="224" class="solid"></line>
  <line x1="628" y1="224" x2="628" y2="352" class="solid"></line>
  <line x1="300" y1="352" x2="300" y2="372" class="solid"></line>
  <line x1="636" y1="352" x2="636" y2="384" class="solid"></line>
  <polygon points="296,372 304,372 300,384" class="filled"></polygon>
  <line x1="628" y1="384" x2="628" y2="832" class="solid"></line>
  <text x="226" y="412" >2.</text>
  <text x="250" y="412" >GENERATE</text>
  <text x="322" y="412" >MDL</text>
  <line x1="636" y1="400" x2="636" y2="816" class="solid"></line>
  <line x1="48" y1="728" x2="64" y2="728" class="solid"></line>
  <text x="74" y="732" >UI</text>
  <path d="M 104,720 A 16,16 0,0,0 104,736" class="nofill"></path>
  <text x="106" y="732" >from</text>
  <text x="146" y="732" >screens</text>
  <text x="210" y="732" >+</text>
  <text x="226" y="732" >forms</text>
  <path d="M 264,720 A 16,16 0,0,1 264,736" class="nofill"></path>
  <text x="50" y="748" >CREATE</text>
  <text x="106" y="748" >PAGE</text>
  <text x="146" y="748" >Sales.Customer</text>
  <line x1="256" y1="752" x2="264" y2="752" class="solid"></line>
  <text x="266" y="748" >Overview</text>
  <text x="66" y="764" >LAYOUT</text>
  <text x="122" y="764" >&#39;Atlas</text>
  <line x1="168" y1="768" x2="176" y2="768" class="solid"></line>
  <text x="178" y="764" >Default&#39;</text>
  <text x="50" y="780" >BEGIN</text>
  <text x="66" y="796" >DATAGRID</text>
  <text x="50" y="812" >END;</text>
  <line x1="300" y1="832" x2="300" y2="852" class="solid"></line>
  <line x1="636" y1="832" x2="636" y2="864" class="solid"></line>
  <polygon points="296,852 304,852 300,864" class="filled"></polygon>
  <line x1="628" y1="864" x2="628" y2="1040" class="solid"></line>
  <text x="226" y="892" >3.</text>
  <text x="250" y="892" >VALIDATE</text>
  <text x="322" y="892" >&amp;</text>
  <text x="338" y="892" >REFINE</text>
  <line x1="636" y1="880" x2="636" y2="912" class="solid"></line>
  <line x1="300" y1="1040" x2="300" y2="1060" class="solid"></line>
  <line x1="636" y1="1040" x2="636" y2="1072" class="solid"></line>
  <polygon points="296,1060 304,1060 300,1072" class="filled"></polygon>
  <text x="226" y="1100" >4.</text>
  <text x="250" y="1100" >DEPLOY</text>
  <text x="306" y="1100" >&amp;</text>
  <text x="322" y="1100" >VALIDATE</text>
  <line x1="636" y1="1088" x2="636" y2="1120" class="solid"></line>
  <text x="66" y="124" >OutSystems</text>
  <text x="218" y="124" >Java</text>
  <line x1="256" y1="112" x2="248" y2="128" class="solid"></line>
  <text x="258" y="124" >.NET</text>
  <text x="346" y="124" >Database</text>
  <text x="498" y="124" >UI</text>
  <text x="66" y="140" >Export</text>
  <text x="218" y="140" >Source</text>
  <text x="346" y="140" >Schema</text>
  <text x="482" y="140" >Screens</text>
  <line x1="324" y1="192" x2="324" y2="212" class="solid"></line>
  <polygon points="320,212 328,212 324,224" class="filled"></polygon>
  <line x1="48" y1="440" x2="64" y2="440" class="solid"></line>
  <text x="74" y="444" >Domain</text>
  <text x="130" y="444" >Model</text>
  <path d="M 184,432 A 16,16 0,0,0 184,448" class="nofill"></path>
  <text x="186" y="444" >from</text>
  <text x="226" y="444" >DB</text>
  <text x="250" y="444" >schema</text>
  <text x="306" y="444" >+</text>
  <text x="322" y="444" >entity</text>
  <text x="378" y="444" >classes</text>
  <path d="M 432,432 A 16,16 0,0,1 432,448" class="nofill"></path>
  <text x="50" y="460" >CREATE</text>
  <text x="106" y="460" >PERSISTENT</text>
  <text x="194" y="460" >ENTITY</text>
  <text x="250" y="460" >Sales.Customer</text>
  <path d="M 376,448 A 16,16 0,0,0 376,464" class="nofill"></path>
  <text x="66" y="476" >Cust</text>
  <line x1="100" y1="476" x2="100" y2="472" class="solid end_marked_open_circle"></line>
  <text x="106" y="476" >merCode:</text>
  <text x="178" y="476" >String</text>
  <path d="M 232,464 A 16,16 0,0,0 232,480" class="nofill"></path>
  <text x="234" y="476" >20</text>
  <path d="M 248,464 A 16,16 0,0,1 248,480" class="nofill"></path>
  <text x="266" y="476" >NOT</text>
  <text x="298" y="476" >NULL,</text>
  <text x="66" y="492" >Name:</text>
  <text x="114" y="492" >String(200</text>
  <path d="M 192,480 A 16,16 0,0,1 192,496" class="nofill"></path>
  <text x="210" y="492" >NOT</text>
  <text x="242" y="492" >NULL,</text>
  <text x="66" y="508" >CreditLimit:</text>
  <text x="170" y="508" >Decimal</text>
  <text x="234" y="508" >DEFAULT</text>
  <path d="M 48,512 A 16,16 0,0,1 48,528" class="nofill"></path>
  <text x="58" y="524" >;</text>
  <text x="298" y="508" >0</text>
  <line x1="48" y1="552" x2="64" y2="552" class="solid"></line>
  <text x="74" y="556" >Business</text>
  <text x="146" y="556" >Logic</text>
  <path d="M 200,544 A 16,16 0,0,0 200,560" class="nofill"></path>
  <text x="202" y="556" >from</text>
  <text x="242" y="556" >service</text>
  <text x="306" y="556" >classes</text>
  <text x="370" y="556" >+</text>
  <text x="386" y="556" >stored</text>
  <text x="442" y="556" >procs</text>
  <path d="M 480,544 A 16,16 0,0,1 480,560" class="nofill"></path>
  <text x="50" y="572" >CREATE</text>
  <text x="106" y="572" >MICROFLOW</text>
  <text x="186" y="572" >Sales.CalculateDiscount</text>
  <path d="M 384,560 A 16,16 0,0,0 384,576" class="nofill"></path>
  <text x="386" y="572" >$Order:</text>
  <text x="450" y="572" >Order</text>
  <path d="M 488,560 A 16,16 0,0,1 488,576" class="nofill"></path>
  <text x="50" y="588" >RETURNS</text>
  <text x="114" y="588" >Decimal</text>
  <text x="50" y="604" >BEGIN</text>
  <text x="66" y="620" >RETRIEVE</text>
  <text x="138" y="620" >$Customer</text>
  <text x="218" y="620" >FROM</text>
  <text x="258" y="620" >$Order</text>
  <line x1="312" y1="608" x2="304" y2="624" class="solid"></line>
  <text x="314" y="620" >Order</text>
  <line x1="352" y1="624" x2="360" y2="624" class="solid"></line>
  <text x="362" y="620" >Customer;</text>
  <text x="66" y="636" >IF</text>
  <text x="90" y="636" >$Customer</text>
  <line x1="168" y1="624" x2="160" y2="640" class="solid"></line>
  <text x="170" y="636" >IsPreferred</text>
  <text x="266" y="636" >THEN</text>
  <text x="82" y="652" >RETURN</text>
  <text x="138" y="652" >$Order</text>
  <line x1="192" y1="640" x2="184" y2="656" class="solid"></line>
  <text x="194" y="652" >Total</text>
  <text x="242" y="652" >*</text>
  <text x="258" y="652" >0.10;</text>
  <text x="66" y="668" >END</text>
  <text x="98" y="668" >IF;</text>
  <text x="66" y="684" >RETURN</text>
  <text x="122" y="684" >0;</text>
  <text x="50" y="700" >END;</text>
  <text x="138" y="796" >CustomerList</text>
  <text x="242" y="796" >SOURCE</text>
  <text x="298" y="796" >DATABASE</text>
  <text x="370" y="796" >Sales.Customer</text>
  <text x="490" y="796" >...</text>
  <g>
    <line x1="4" y1="8" x2="628" y2="8" class="solid"></line>
    <line x1="4" y1="8" x2="4" y2="1224" class="solid"></line>
    <line x1="628" y1="1072" x2="628" y2="1224" class="solid"></line>
    <line x1="4" y1="1224" x2="628" y2="1224" class="solid"></line>
  </g>
  <g>
    <line x1="28" y1="56" x2="620" y2="56" class="solid"></line>
    <line x1="28" y1="56" x2="28" y2="344" class="solid"></line>
    <line x1="28" y1="344" x2="620" y2="344" class="solid"></line>
  </g>
  <g>
    <line x1="28" y1="392" x2="620" y2="392" class="solid"></line>
    <line x1="28" y1="392" x2="28" y2="824" class="solid"></line>
    <line x1="28" y1="824" x2="620" y2="824" class="solid"></line>
  </g>
  <g>
    <line x1="28" y1="872" x2="620" y2="872" class="solid"></line>
    <line x1="28" y1="872" x2="28" y2="1032" class="solid"></line>
    <line x1="620" y1="912" x2="620" y2="1032" class="solid"></line>
    <line x1="28" y1="1032" x2="620" y2="1032" class="solid"></line>
  </g>
  <g>
    <line x1="28" y1="1080" x2="620" y2="1080" class="solid"></line>
    <line x1="28" y1="1080" x2="28" y2="1208" class="solid"></line>
    <line x1="620" y1="1120" x2="620" y2="1208" class="solid"></line>
    <line x1="28" y1="1208" x2="620" y2="1208" class="solid"></line>
  </g>
  <g>
    <line x1="52" y1="104" x2="164" y2="104" class="solid"></line>
    <line x1="52" y1="104" x2="52" y2="152" class="solid"></line>
    <line x1="164" y1="104" x2="164" y2="152" class="solid"></line>
    <line x1="52" y1="152" x2="164" y2="152" class="solid"></line>
    <line x1="108" y1="152" x2="108" y2="184" class="solid"></line>
    <line x1="188" y1="104" x2="300" y2="104" class="solid"></line>
    <line x1="188" y1="104" x2="188" y2="152" class="solid"></line>
    <line x1="300" y1="104" x2="300" y2="152" class="solid"></line>
    <line x1="188" y1="152" x2="300" y2="152" class="solid"></line>
    <line x1="244" y1="152" x2="244" y2="184" class="solid"></line>
    <line x1="324" y1="104" x2="436" y2="104" class="solid"></line>
    <line x1="324" y1="104" x2="324" y2="152" class="solid"></line>
    <line x1="436" y1="104" x2="436" y2="152" class="solid"></line>
    <line x1="324" y1="152" x2="436" y2="152" class="solid"></line>
    <line x1="380" y1="152" x2="380" y2="184" class="solid"></line>
    <line x1="460" y1="104" x2="572" y2="104" class="solid"></line>
    <line x1="460" y1="104" x2="460" y2="152" class="solid"></line>
    <line x1="572" y1="104" x2="572" y2="152" class="solid"></line>
    <line x1="460" y1="152" x2="572" y2="152" class="solid"></line>
    <line x1="516" y1="152" x2="516" y2="184" class="solid"></line>
    <line x1="108" y1="184" x2="516" y2="184" class="solid"></line>
  </g>
</svg>