<svg xmlns="http://www.w3.org/2000/svg" width="648" height="704" class="svgbob">
  <style>.svgbob line, .svgbob path, .svgbob circle, .svgbob rect, .svgbob polygon {
  stroke: black;
  stroke-width: 2;
  stroke-opacity: 1;
  fill-opacity: 1;
  stroke-linecap: round;
  stroke-linejoin: miter;
}

.svgbob text {
  white-space: pre;
  fill: black;
  font-family: Iosevka Fixed, monospace;
  font-size: 14px;
}

.svgbob rect.backdrop {
  stroke: none;
  fill: white;
}

.svgbob .broken {
  stroke-dasharray: 8;
}

.svgbob .filled {
  fill: black;
}

.svgbob .bg_filled {
  fill: white;
  stroke-width: 1;
}

.svgbob .nofill {
  fill: white;
}

.svgbob .end_marked_arrow {
  marker-end: url(#arrow);
}

.svgbob .start_marked_arrow {
  marker-start: url(#arrow);
}

.svgbob .end_marked_diamond {
  marker-end: url(#diamond);
}

.svgbob .start_marked_diamond {
  marker-start: url(#diamond);
}

.svgbob .end_marked_circle {
  marker-end: url(#circle);
}

.svgbob .start_marked_circle {
  marker-start: url(#circle);
}

.svgbob .end_marked_open_circle {
  marker-end: url(#open_circle);
}

.svgbob .start_marked_open_circle {
  marker-start: url(#open_circle);
}

.svgbob .end_marked_big_open_circle {
  marker-end: url(#big_open_circle);
}

.svgbob .start_marked_big_open_circle {
  marker-start: url(#big_open_circle);
}

</style>
  <defs>
    <marker id="arrow" viewBox="-2 -2 8 8" refX="4" refY="2" markerWidth="7" markerHeight="7" orient="auto-start-reverse">
      <polygon points="0,0 0,4 4,2 0,0"></polygon>
    </marker>
    <marker id="diamond" viewBox="-2 -2 8 8" refX="4" refY="2" markerWidth="7" markerHeight="7" orient="auto-start-reverse">
      <polygon points="0,2 2,0 4,2 2,4 0,2"></polygon>
    </marker>
    <marker id="circle" viewBox="0 0 8 8" refX="4" refY="4" markerWidth="7" markerHeight="7" orient="auto-start-reverse">
      <circle cx="4" cy="4" r="2" class="filled"></circle>
    </marker>
    <marker id="open_circle" viewBox="0 0 8 8" refX="4" refY="4" markerWidth="7" markerHeight="7" orient="auto-start-reverse">
      <circle cx="4" cy="4" r="2" class="bg_filled"></circle>
    </marker>
    <marker id="big_open_circle" viewBox="0 0 8 8" refX="4" refY="4" markerWidth="7" markerHeight="7" orient="auto-start-reverse">
      <circle cx="4" cy="4" r="3" class="bg_filled"></circle>
    </marker>
  </defs>
  <rect class="backdrop" x="0" y="0" width="648" height="704"></rect>
  <rect x="28" y="72" width="592" height="80" class="solid nofill" rx="0"></rect>
  <line x1="40" y1="88" x2="48" y2="88" class="solid"></line>
  <line x1="40" y1="104" x2="48" y2="104" class="solid"></line>
  <line x1="40" y1="120" x2="48" y2="120" class="solid"></line>
  <line x1="40" y1="136" x2="48" y2="136" class="solid"></line>
  <text x="58" y="92" >AI</text>
  <text x="82" y="92" >analyzes</text>
  <text x="154" y="92" >legacy</text>
  <text x="210" y="92" >codebase</text>
  <text x="58" y="108" >Generates</text>
  <text x="138" y="108" >inventory:</text>
  <text x="226" y="108" >entities,</text>
  <text x="306" y="108" >services,</text>
  <text x="58" y="124" >Identifies</text>
  <text x="146" y="124" >patterns</text>
  <text x="218" y="124" >and</text>
  <text x="250" y="124" >complexity</text>
  <text x="58" y="140" >Produces</text>
  <text x="130" y="140" >migration</text>
  <text x="210" y="140" >assessment</text>
  <text x="298" y="140" >report</text>
  <text x="386" y="108" >screens</text>
  <rect x="28" y="200" width="592" height="80" class="solid nofill" rx="0"></rect>
  <line x1="40" y1="216" x2="48" y2="216" class="solid"></line>
  <line x1="40" y1="232" x2="48" y2="232" class="solid"></line>
  <line x1="40" y1="248" x2="48" y2="248" class="solid"></line>
  <line x1="40" y1="264" x2="48" y2="264" class="solid"></line>
  <text x="58" y="220" >Generate</text>
  <text x="58" y="236" >Generate</text>
  <text x="58" y="252" >Generate</text>
  <text x="58" y="268" >Validate</text>
  <text x="130" y="220" >entities</text>
  <text x="202" y="220" >from</text>
  <text x="242" y="220" >DB</text>
  <text x="266" y="220" >schema</text>
  <line x1="328" y1="208" x2="320" y2="224" class="solid"></line>
  <text x="338" y="220" >entity</text>
  <text x="394" y="220" >classes</text>
  <text x="130" y="236" >associations</text>
  <text x="234" y="236" >from</text>
  <text x="274" y="236" >foreign</text>
  <text x="338" y="236" >keys</text>
  <line x1="384" y1="224" x2="376" y2="240" class="solid"></line>
  <text x="394" y="236" >relationships</text>
  <text x="130" y="252" >enumerations</text>
  <text x="234" y="252" >from</text>
  <text x="274" y="252" >lookup</text>
  <text x="330" y="252" >tables</text>
  <line x1="392" y1="240" x2="384" y2="256" class="solid"></line>
  <text x="402" y="252" >enums</text>
  <text x="130" y="268" >in</text>
  <text x="154" y="268" >Studio</text>
  <text x="210" y="268" >Pro,</text>
  <text x="250" y="268" >adjust</text>
  <text x="306" y="268" >as</text>
  <text x="330" y="268" >needed</text>
  <rect x="28" y="328" width="592" height="80" class="solid nofill" rx="0"></rect>
  <line x1="40" y1="344" x2="48" y2="344" class="solid"></line>
  <line x1="40" y1="360" x2="48" y2="360" class="solid"></line>
  <line x1="40" y1="376" x2="48" y2="376" class="solid"></line>
  <line x1="40" y1="392" x2="48" y2="392" class="solid"></line>
  <text x="58" y="348" >Generate</text>
  <text x="130" y="348" >microflows</text>
  <text x="218" y="348" >from</text>
  <text x="258" y="348" >service</text>
  <text x="322" y="348" >methods</text>
  <text x="58" y="364" >Convert</text>
  <text x="122" y="364" >stored</text>
  <text x="178" y="364" >procedures</text>
  <text x="266" y="364" >to</text>
  <text x="290" y="364" >microflows</text>
  <text x="58" y="380" >Map</text>
  <text x="90" y="380" >validation</text>
  <text x="178" y="380" >rules</text>
  <text x="58" y="396" >Human</text>
  <text x="106" y="396" >review</text>
  <text x="162" y="396" >of</text>
  <text x="186" y="396" >complex</text>
  <text x="250" y="396" >logic</text>
  <rect x="28" y="456" width="592" height="80" class="solid nofill" rx="0"></rect>
  <line x1="40" y1="472" x2="48" y2="472" class="solid"></line>
  <line x1="40" y1="488" x2="48" y2="488" class="solid"></line>
  <line x1="40" y1="504" x2="48" y2="504" class="solid"></line>
  <line x1="40" y1="520" x2="48" y2="520" class="solid"></line>
  <text x="58" y="476" >Generate</text>
  <text x="130" y="476" >pages</text>
  <text x="178" y="476" >from</text>
  <text x="218" y="476" >screens</text>
  <line x1="280" y1="464" x2="272" y2="480" class="solid"></line>
  <text x="282" y="476" >forms</text>
  <text x="58" y="492" >Map</text>
  <text x="90" y="492" >UI</text>
  <text x="114" y="492" >patterns</text>
  <text x="186" y="492" >to</text>
  <text x="210" y="492" >Mendix</text>
  <text x="266" y="492" >widgets</text>
  <text x="58" y="508" >Apply</text>
  <text x="106" y="508" >Atlas</text>
  <text x="154" y="508" >UI</text>
  <text x="178" y="508" >styling</text>
  <text x="58" y="524" >User</text>
  <text x="98" y="524" >acceptance</text>
  <text x="186" y="524" >testing</text>
  <rect x="28" y="584" width="592" height="80" class="solid nofill" rx="0"></rect>
  <line x1="40" y1="600" x2="48" y2="600" class="solid"></line>
  <line x1="40" y1="616" x2="48" y2="616" class="solid"></line>
  <line x1="40" y1="632" x2="48" y2="632" class="solid"></line>
  <line x1="40" y1="648" x2="48" y2="648" class="solid"></line>
  <text x="58" y="604" >Connect</text>
  <text x="122" y="604" >to</text>
  <text x="146" y="604" >existing</text>
  <text x="58" y="620" >Data</text>
  <text x="98" y="620" >migration</text>
  <text x="58" y="636" >Parallel</text>
  <text x="130" y="636" >running</text>
  <text x="58" y="652" >Production</text>
  <text x="146" y="652" >deployment</text>
  <text x="218" y="604" >systems</text>
  <path d="M 288,592 A 16,16 0,0,0 288,608" class="nofill"></path>
  <text x="290" y="604" >if</text>
  <text x="314" y="604" >needed</text>
  <path d="M 360,592 A 16,16 0,0,1 360,608" class="nofill"></path>
  <text x="170" y="28" >Typical</text>
  <text x="234" y="28" >Migration</text>
  <text x="314" y="28" >Project</text>
  <text x="378" y="28" >Phases</text>
  <line x1="636" y1="16" x2="636" y2="48" class="solid"></line>
  <line x1="628" y1="48" x2="628" y2="160" class="solid"></line>
  <line x1="636" y1="160" x2="636" y2="176" class="solid"></line>
  <line x1="628" y1="176" x2="628" y2="288" class="solid"></line>
  <line x1="636" y1="288" x2="636" y2="304" class="solid"></line>
  <line x1="628" y1="304" x2="628" y2="416" class="solid"></line>
  <line x1="636" y1="416" x2="636" y2="432" class="solid"></line>
  <line x1="628" y1="432" x2="628" y2="544" class="solid"></line>
  <line x1="636" y1="544" x2="636" y2="560" class="solid"></line>
  <text x="26" y="60" >Phase</text>
  <text x="74" y="60" >1:</text>
  <text x="98" y="60" >Discovery</text>
  <path d="M 184,48 A 16,16 0,0,0 184,64" class="nofill"></path>
  <text x="186" y="60" >1</text>
  <line x1="192" y1="56" x2="200" y2="56" class="solid"></line>
  <text x="202" y="60" >2</text>
  <text x="218" y="60" >weeks</text>
  <path d="M 256,48 A 16,16 0,0,1 256,64" class="nofill"></path>
  <text x="26" y="188" >Phase</text>
  <text x="74" y="188" >2:</text>
  <text x="98" y="188" >Domain</text>
  <text x="154" y="188" >Model</text>
  <text x="202" y="188" >Migration</text>
  <path d="M 288,176 A 16,16 0,0,0 288,192" class="nofill"></path>
  <text x="290" y="188" >2</text>
  <line x1="296" y1="184" x2="304" y2="184" class="solid"></line>
  <text x="306" y="188" >4</text>
  <text x="322" y="188" >weeks</text>
  <path d="M 360,176 A 16,16 0,0,1 360,192" class="nofill"></path>
  <text x="26" y="316" >Phase</text>
  <text x="74" y="316" >3:</text>
  <text x="98" y="316" >Business</text>
  <text x="170" y="316" >Logic</text>
  <text x="218" y="316" >Migration</text>
  <path d="M 304,304 A 16,16 0,0,0 304,320" class="nofill"></path>
  <text x="306" y="316" >4</text>
  <line x1="312" y1="312" x2="320" y2="312" class="solid"></line>
  <text x="322" y="316" >8</text>
  <text x="338" y="316" >weeks</text>
  <path d="M 376,304 A 16,16 0,0,1 376,320" class="nofill"></path>
  <text x="26" y="444" >Phase</text>
  <text x="74" y="444" >4:</text>
  <text x="98" y="444" >UI</text>
  <text x="122" y="444" >Migration</text>
  <path d="M 208,432 A 16,16 0,0,0 208,448" class="nofill"></path>
  <text x="210" y="444" >4</text>
  <line x1="216" y1="440" x2="224" y2="440" class="solid"></line>
  <text x="226" y="444" >8</text>
  <text x="242" y="444" >weeks</text>
  <path d="M 280,432 A 16,16 0,0,1 280,448" class="nofill"></path>
  <text x="26" y="572" >Phase</text>
  <text x="74" y="572" >5:</text>
  <text x="98" y="572" >Integration</text>
  <text x="194" y="572" >&amp;</text>
  <text x="210" y="572" >Cutover</text>
  <path d="M 280,560 A 16,16 0,0,0 280,576" class="nofill"></path>
  <text x="282" y="572" >2</text>
  <line x1="288" y1="568" x2="296" y2="568" class="solid"></line>
  <text x="298" y="572" >4</text>
  <text x="314" y="572" >weeks</text>
  <path d="M 352,560 A 16,16 0,0,1 352,576" class="nofill"></path>
  <g>
    <line x1="4" y1="8" x2="628" y2="8" class="solid"></line>
    <line x1="4" y1="8" x2="4" y2="680" class="solid"></line>
    <line x1="628" y1="560" x2="628" y2="680" class="solid"></line>
    <line x1="4" y1="680" x2="628" y2="680" class="solid"></line>
  </g>
</svg>