<svg xmlns="http://www.w3.org/2000/svg" width="648" height="240" class="svgbob">
  <style>.svgbob line, .svgbob path, .svgbob circle, .svgbob rect, .svgbob polygon {
  stroke: black;
  stroke-width: 2;
  stroke-opacity: 1;
  fill-opacity: 1;
  stroke-linecap: round;
  stroke-linejoin: miter;
}

.svgbob text {
  white-space: pre;
  fill: black;
  font-family: Iosevka Fixed, monospace;
  font-size: 14px;
}

.svgbob rect.backdrop {
  stroke: none;
  fill: white;
}

.svgbob .broken {
  stroke-dasharray: 8;
}

.svgbob .filled {
  fill: black;
}

.svgbob .bg_filled {
  fill: white;
  stroke-width: 1;
}

.svgbob .nofill {
  fill: white;
}

.svgbob .end_marked_arrow {
  marker-end: url(#arrow);
}

.svgbob .start_marked_arrow {
  marker-start: url(#arrow);
}

.svgbob .end_marked_diamond {
  marker-end: url(#diamond);
}

.svgbob .start_marked_diamond {
  marker-start: url(#diamond);
}

.svgbob .end_marked_circle {
  marker-end: url(#circle);
}

.svgbob .start_marked_circle {
  marker-start: url(#circle);
}

.svgbob .end_marked_open_circle {
  marker-end: url(#open_circle);
}

.svgbob .start_marked_open_circle {
  marker-start: url(#open_circle);
}

.svgbob .end_marked_big_open_circle {
  marker-end: url(#big_open_circle);
}

.svgbob .start_marked_big_open_circle {
  marker-start: url(#big_open_circle);
}

</style>
  <defs>
    <marker id="arrow" viewBox="-2 -2 8 8" refX="4" refY="2" markerWidth="7" markerHeight="7" orient="auto-start-reverse">
      <polygon points="0,0 0,4 4,2 0,0"></polygon>
    </marker>
    <marker id="diamond" viewBox="-2 -2 8 8" refX="4" refY="2" markerWidth="7" markerHeight="7" orient="auto-start-reverse">
      <polygon points="0,2 2,0 4,2 2,4 0,2"></polygon>
    </marker>
    <marker id="circle" viewBox="0 0 8 8" refX="4" refY="4" markerWidth="7" markerHeight="7" orient="auto-start-reverse">
      <circle cx="4" cy="4" r="2" class="filled"></circle>
    </marker>
    <marker id="open_circle" viewBox="0 0 8 8" refX="4" refY="4" markerWidth="7" markerHeight="7" orient="auto-start-reverse">
      <circle cx="4" cy="4" r="2" class="bg_filled"></circle>
    </marker>
    <marker id="big_open_circle" viewBox="0 0 8 8" refX="4" refY="4" markerWidth="7" markerHeight="7" orient="auto-start-reverse">
      <circle cx="4" cy="4" r="3" class="bg_filled"></circle>
    </marker>
  </defs>
  <rect class="backdrop" x="0" y="0" width="648" height="240"></rect>
  <text x="26" y="28" >User:</text>
  <text x="26" y="44" >[Pro</text>
  <line x1="60" y1="32" x2="60" y2="36" class="solid"></line>
  <polygon points="56,36 64,36 60,48" class="filled"></polygon>
  <text x="66" y="44" >ides:</text>
  <line x1="636" y1="48" x2="636" y2="80" class="solid"></line>
  <text x="26" y="76" >Claude</text>
  <text x="82" y="76" >Code:</text>
  <text x="26" y="92" >1.</text>
  <text x="50" y="92" >Parse</text>
  <text x="98" y="92" >OutSystems</text>
  <text x="186" y="92" >OML</text>
  <line x1="216" y1="80" x2="208" y2="96" class="solid"></line>
  <text x="218" y="92" >metadata</text>
  <line x1="628" y1="80" x2="628" y2="112" class="solid"></line>
  <text x="26" y="108" >2.</text>
  <text x="50" y="108" >Extract</text>
  <text x="114" y="108" >entity</text>
  <text x="170" y="108" >definitions</text>
  <text x="354" y="108" >CREATE</text>
  <text x="410" y="108" >ENTITY</text>
  <text x="466" y="108" >statements</text>
  <text x="26" y="124" >3.</text>
  <text x="50" y="124" >Map</text>
  <text x="82" y="124" >references</text>
  <text x="258" y="124" >CREATE</text>
  <text x="314" y="124" >ASSOCIATION</text>
  <text x="410" y="124" >statements</text>
  <line x1="636" y1="112" x2="636" y2="128" class="solid"></line>
  <text x="26" y="140" >4.</text>
  <text x="50" y="140" >Convert</text>
  <text x="114" y="140" >Server</text>
  <text x="170" y="140" >Actions</text>
  <text x="322" y="140" >CREATE</text>
  <text x="378" y="140" >MICROFLOW</text>
  <text x="458" y="140" >with</text>
  <text x="26" y="156" >5.</text>
  <text x="50" y="156" >Transform</text>
  <text x="130" y="156" >Screens</text>
  <text x="282" y="156" >CREATE</text>
  <text x="338" y="156" >PAGE</text>
  <text x="378" y="156" >with</text>
  <text x="418" y="156" >widgets</text>
  <text x="26" y="172" >6.</text>
  <text x="50" y="172" >Validate</text>
  <text x="122" y="172" >via</text>
  <text x="154" y="172" >Language</text>
  <text x="226" y="172" >Server</text>
  <text x="26" y="188" >7.</text>
  <text x="50" y="188" >Execute</text>
  <text x="114" y="188" >via</text>
  <text x="146" y="188" >REPL</text>
  <text x="186" y="188" >to</text>
  <text x="210" y="188" >create</text>
  <text x="266" y="188" >Mendix</text>
  <text x="322" y="188" >model</text>
  <text x="26" y="204" >8.</text>
  <text x="50" y="204" >Show</text>
  <text x="90" y="204" >in</text>
  <text x="114" y="204" >Studio</text>
  <text x="170" y="204" >Pro</text>
  <text x="202" y="204" >for</text>
  <text x="234" y="204" >human</text>
  <text x="282" y="204" >review</text>
  <text x="114" y="44" >OML</text>
  <text x="146" y="44" >export</text>
  <text x="202" y="44" >file</text>
  <text x="242" y="44" >or</text>
  <text x="266" y="44" >documentation]</text>
  <text x="498" y="140" >logic</text>
  <text x="74" y="28" >Migrate this OutSystems module to Mendix</text>
  <g>
    <line x1="4" y1="8" x2="628" y2="8" class="solid"></line>
    <line x1="4" y1="8" x2="4" y2="216" class="solid"></line>
    <line x1="628" y1="8" x2="628" y2="48" class="solid"></line>
    <line x1="628" y1="128" x2="628" y2="216" class="solid"></line>
    <line x1="4" y1="216" x2="628" y2="216" class="solid"></line>
  </g>
  <g>
    <text x="266" y="108">→</text>
    <text x="282" y="108">Generate</text>
  </g>
  <g>
    <text x="170" y="124">→</text>
    <text x="186" y="124">Generate</text>
  </g>
  <g>
    <text x="234" y="140">→</text>
    <text x="250" y="140">Generate</text>
  </g>
  <g>
    <text x="194" y="156">→</text>
    <text x="210" y="156">Generate</text>
  </g>
</svg>