<svg xmlns="http://www.w3.org/2000/svg" width="648" height="528" class="svgbob">
  <style>.svgbob line, .svgbob path, .svgbob circle, .svgbob rect, .svgbob polygon {
  stroke: black;
  stroke-width: 2;
  stroke-opacity: 1;
  fill-opacity: 1;
  stroke-linecap: round;
  stroke-linejoin: miter;
}

.svgbob text {
  white-space: pre;
  fill: black;
  font-family: Iosevka Fixed, monospace;
  font-size: 14px;
}

.svgbob rect.backdrop {
  stroke: none;
  fill: white;
}

.svgbob .broken {
  stroke-dasharray: 8;
}

.svgbob .filled {
  fill: black;
}

.svgbob .bg_filled {
  fill: white;
  stroke-width: 1;
}

.svgbob .nofill {
  fill: white;
}

.svgbob .end_marked_arrow {
  marker-end: url(#arrow);
}

.svgbob .start_marked_arrow {
  marker-start: url(#arrow);
}

.svgbob .end_marked_diamond {
  marker-end: url(#diamond);
}

.svgbob .start_marked_diamond {
  marker-start: url(#diamond);
}

.svgbob .end_marked_circle {
  marker-end: url(#circle);
}

.svgbob .start_marked_circle {
  marker-start: url(#circle);
}

.svgbob .end_marked_open_circle {
  marker-end: url(#open_circle);
}

.svgbob .start_marked_open_circle {
  marker-start: url(#open_circle);
}

.svgbob .end_marked_big_open_circle {
  marker-end: url(#big_open_circle);
}

.svgbob .start_marked_big_open_circle {
  marker-start: url(#big_open_circle);
}

</style>
  <defs>
    <marker id="arrow" viewBox="-2 -2 8 8" refX="4" refY="2" markerWidth="7" markerHeight="7" orient="auto-start-reverse">
      <polygon points="0,0 0,4 4,2 0,0"></polygon>
    </marker>
    <marker id="diamond" viewBox="-2 -2 8 8" refX="4" refY="2" markerWidth="7" markerHeight="7" orient="auto-start-reverse">
      <polygon points="0,2 2,0 4,2 2,4 0,2"></polygon>
    </marker>
    <marker id="circle" viewBox="0 0 8 8" refX="4" refY="4" markerWidth="7" markerHeight="7" orient="auto-start-reverse">
      <circle cx="4" cy="4" r="2" class="filled"></circle>
    </marker>
    <marker id="open_circle" viewBox="0 0 8 8" refX="4" refY="4" markerWidth="7" markerHeight="7" orient="auto-start-reverse">
      <circle cx="4" cy="4" r="2" class="bg_filled"></circle>
    </marker>
    <marker id="big_open_circle" viewBox="0 0 8 8" refX="4" refY="4" markerWidth="7" markerHeight="7" orient="auto-start-reverse">
      <circle cx="4" cy="4" r="3" class="bg_filled"></circle>
    </marker>
  </defs>
  <rect class="backdrop" x="0" y="0" width="648" height="528"></rect>
  <text x="170" y="28" >VS</text>
  <text x="194" y="28" >Code</text>
  <text x="234" y="28" >Migration</text>
  <text x="314" y="28" >Experience</text>
  <line x1="636" y1="16" x2="636" y2="48" class="solid"></line>
  <line x1="628" y1="48" x2="628" y2="288" class="solid"></line>
  <text x="106" y="76" >Source</text>
  <path d="M 168,64 A 16,16 0,0,0 168,80" class="nofill"></path>
  <text x="170" y="76" >Read</text>
  <line x1="200" y1="72" x2="212" y2="72" class="solid end_marked_big_open_circle"></line>
  <text x="218" y="76" >nly</text>
  <path d="M 240,64 A 16,16 0,0,1 240,80" class="nofill"></path>
  <text x="418" y="76" >Generated</text>
  <text x="498" y="76" >MDL</text>
  <line x1="636" y1="288" x2="636" y2="304" class="solid"></line>
  <text x="50" y="332" >Problems</text>
  <path d="M 128,320 A 16,16 0,0,0 128,336" class="nofill"></path>
  <text x="130" y="332" >0</text>
  <path d="M 136,320 A 16,16 0,0,1 136,336" class="nofill"></path>
  <text x="170" y="332" >Output</text>
  <text x="242" y="332" >Terminal</text>
  <text x="330" y="332" >MDL</text>
  <text x="362" y="332" >Preview</text>
  <line x1="636" y1="336" x2="636" y2="352" class="solid"></line>
  <text x="74" y="380" >Entity:</text>
  <text x="138" y="380" >CRM.Customer</text>
  <text x="98" y="396" >Name:</text>
  <text x="146" y="396" >String</text>
  <path d="M 200,384 A 16,16 0,0,0 200,400" class="nofill"></path>
  <text x="202" y="396" >200</text>
  <path d="M 224,384 A 16,16 0,0,1 224,400" class="nofill"></path>
  <text x="242" y="396" >NOT</text>
  <text x="98" y="412" >Email:</text>
  <text x="154" y="412" >String</text>
  <path d="M 208,400 A 16,16 0,0,0 208,416" class="nofill"></path>
  <text x="210" y="412" >200</text>
  <path d="M 232,400 A 16,16 0,0,1 232,416" class="nofill"></path>
  <text x="98" y="428" >CreditLimit:</text>
  <text x="202" y="428" >Decimal</text>
  <line x1="636" y1="432" x2="636" y2="448" class="solid"></line>
  <text x="74" y="460" >[Open</text>
  <text x="122" y="460" >in</text>
  <text x="146" y="460" >Studio</text>
  <text x="202" y="460" >Pro]</text>
  <text x="250" y="460" >[Execute</text>
  <text x="322" y="460" >in</text>
  <text x="346" y="460" >REPL]</text>
  <text x="402" y="460" >[Validate]</text>
  <text x="50" y="108" >@Entity</text>
  <text x="50" y="124" >public</text>
  <text x="106" y="124" >class</text>
  <text x="154" y="124" >Customer</text>
  <text x="226" y="124" >{</text>
  <text x="66" y="140" >@Column</text>
  <path d="M 128,128 A 16,16 0,0,0 128,144" class="nofill"></path>
  <text x="130" y="140" >length</text>
  <line x1="184" y1="134" x2="192" y2="134" class="solid"></line>
  <line x1="184" y1="138" x2="192" y2="138" class="solid"></line>
  <text x="202" y="140" >200</text>
  <path d="M 224,128 A 16,16 0,0,1 224,144" class="nofill"></path>
  <text x="66" y="156" >private</text>
  <text x="130" y="156" >String</text>
  <text x="186" y="156" >name;</text>
  <text x="362" y="108" >CREATE</text>
  <text x="418" y="108" >PERSISTENT</text>
  <text x="378" y="124" >CRM.Customer</text>
  <path d="M 488,112 A 16,16 0,0,0 488,128" class="nofill"></path>
  <text x="378" y="140" >Name:</text>
  <text x="426" y="140" >String</text>
  <path d="M 480,128 A 16,16 0,0,0 480,144" class="nofill"></path>
  <text x="482" y="140" >200</text>
  <path d="M 504,128 A 16,16 0,0,1 504,144" class="nofill"></path>
  <text x="522" y="140" >NOT</text>
  <text x="378" y="156" >Email:</text>
  <text x="434" y="156" >String</text>
  <path d="M 488,144 A 16,16 0,0,0 488,160" class="nofill"></path>
  <text x="490" y="156" >200</text>
  <path d="M 512,144 A 16,16 0,0,1 512,160" class="nofill"></path>
  <text x="522" y="156" >,</text>
  <text x="378" y="172" >CreditLimit:</text>
  <text x="482" y="172" >Decimal</text>
  <path d="M 360,176 A 16,16 0,0,1 360,192" class="nofill"></path>
  <text x="370" y="188" >;</text>
  <text x="506" y="108" >ENTITY</text>
  <text x="554" y="140" >NULL,</text>
  <text x="66" y="188" >@Column</text>
  <path d="M 128,176 A 16,16 0,0,0 128,192" class="nofill"></path>
  <text x="130" y="188" >length</text>
  <text x="66" y="204" >private</text>
  <text x="130" y="204" >String</text>
  <line x1="184" y1="182" x2="192" y2="182" class="solid"></line>
  <line x1="184" y1="186" x2="192" y2="186" class="solid"></line>
  <text x="202" y="188" >200</text>
  <path d="M 224,176 A 16,16 0,0,1 224,192" class="nofill"></path>
  <text x="186" y="204" >email;</text>
  <line x1="360" y1="216" x2="376" y2="216" class="solid"></line>
  <line x1="360" y1="232" x2="376" y2="232" class="solid"></line>
  <line x1="360" y1="248" x2="376" y2="248" class="solid"></line>
  <text x="386" y="220" >Syntax</text>
  <text x="442" y="220" >highlighting</text>
  <text x="386" y="236" >Error</text>
  <text x="434" y="236" >checking</text>
  <text x="506" y="236" >✓</text>
  <text x="386" y="252" >Outline</text>
  <text x="450" y="252" >view</text>
  <text x="490" y="252" >✓</text>
  <text x="546" y="220" >✓</text>
  <text x="66" y="236" >private</text>
  <text x="130" y="236" >BigDecimal</text>
  <text x="218" y="236" >creditLimit;</text>
  <text x="50" y="252" >}</text>
  <text x="274" y="396" >NULL</text>
  <g>
    <line x1="4" y1="8" x2="628" y2="8" class="solid"></line>
    <line x1="4" y1="8" x2="4" y2="504" class="solid"></line>
    <line x1="628" y1="304" x2="628" y2="504" class="solid"></line>
    <line x1="4" y1="504" x2="628" y2="504" class="solid"></line>
  </g>
  <g>
    <line x1="28" y1="56" x2="620" y2="56" class="solid"></line>
    <line x1="28" y1="56" x2="28" y2="280" class="solid"></line>
    <line x1="340" y1="56" x2="340" y2="280" class="solid"></line>
    <line x1="620" y1="56" x2="620" y2="280" class="solid"></line>
    <line x1="28" y1="280" x2="620" y2="280" class="solid"></line>
  </g>
  <g>
    <line x1="28" y1="312" x2="620" y2="312" class="solid"></line>
    <line x1="28" y1="312" x2="28" y2="488" class="solid"></line>
    <line x1="620" y1="312" x2="620" y2="336" class="solid"></line>
    <line x1="620" y1="352" x2="620" y2="488" class="solid"></line>
    <line x1="28" y1="488" x2="620" y2="488" class="solid"></line>
  </g>
  <g>
    <line x1="52" y1="360" x2="612" y2="360" class="solid"></line>
    <line x1="52" y1="360" x2="52" y2="472" class="solid"></line>
    <line x1="612" y1="360" x2="612" y2="432" class="solid"></line>
    <line x1="612" y1="448" x2="612" y2="472" class="solid"></line>
    <line x1="52" y1="472" x2="612" y2="472" class="solid"></line>
  </g>
  <g>
    <line x1="76" y1="392" x2="88" y2="392" class="solid"></line>
    <line x1="76" y1="392" x2="76" y2="424" class="solid"></line>
    <line x1="76" y1="408" x2="88" y2="408" class="solid"></line>
    <line x1="76" y1="424" x2="88" y2="424" class="solid"></line>
  </g>
</svg>