<svg xmlns="http://www.w3.org/2000/svg" width="648" height="240" class="svgbob">
  <style>.svgbob line, .svgbob path, .svgbob circle, .svgbob rect, .svgbob polygon {
  stroke: black;
  stroke-width: 2;
  stroke-opacity: 1;
  fill-opacity: 1;
  stroke-linecap: round;
  stroke-linejoin: miter;
}

.svgbob text {
  white-space: pre;
  fill: black;
  font-family: Iosevka Fixed, monospace;
  font-size: 14px;
}

.svgbob rect.backdrop {
  stroke: none;
  fill: white;
}

.svgbob .broken {
  stroke-dasharray: 8;
}

.svgbob .filled {
  fill: black;
}

.svgbob .bg_filled {
  fill: white;
  stroke-width: 1;
}

.svgbob .nofill {
  fill: white;
}

.svgbob .end_marked_arrow {
  marker-end: url(#arrow);
}

.svgbob .start_marked_arrow {
  marker-start: url(#arrow);
}

.svgbob .end_marked_diamond {
  marker-end: url(#diamond);
}

.svgbob .start_marked_diamond {
  marker-start: url(#diamond);
}

.svgbob .end_marked_circle {
  marker-end: url(#circle);
}

.svgbob .start_marked_circle {
  marker-start: url(#circle);
}

.svgbob .end_marked_open_circle {
  marker-end: url(#open_circle);
}

.svgbob .start_marked_open_circle {
  marker-start: url(#open_circle);
}

.svgbob .end_marked_big_open_circle {
  marker-end: url(#big_open_circle);
}

.svgbob .start_marked_big_open_circle {
  marker-start: url(#big_open_circle);
}

</style>
  <defs>
    <marker id="arrow" viewBox="-2 -2 8 8" refX="4" refY="2" markerWidth="7" markerHeight="7" orient="auto-start-reverse">
      <polygon points="0,0 0,4 4,2 0,0"></polygon>
    </marker>
    <marker id="diamond" viewBox="-2 -2 8 8" refX="4" refY="2" markerWidth="7" markerHeight="7" orient="auto-start-reverse">
      <polygon points="0,2 2,0 4,2 2,4 0,2"></polygon>
    </marker>
    <marker id="circle" viewBox="0 0 8 8" refX="4" refY="4" markerWidth="7" markerHeight="7" orient="auto-start-reverse">
      <circle cx="4" cy="4" r="2" class="filled"></circle>
    </marker>
    <marker id="open_circle" viewBox="0 0 8 8" refX="4" refY="4" markerWidth="7" markerHeight="7" orient="auto-start-reverse">
      <circle cx="4" cy="4" r="2" class="bg_filled"></circle>
    </marker>
    <marker id="big_open_circle" viewBox="0 0 8 8" refX="4" refY="4" markerWidth="7" markerHeight="7" orient="auto-start-reverse">
      <circle cx="4" cy="4" r="3" class="bg_filled"></circle>
    </marker>
  </defs>
  <rect class="backdrop" x="0" y="0" width="648" height="240"></rect>
  <rect x="28" y="56" width="144" height="112" class="solid nofill" rx="0"></rect>
  <text x="42" y="76" >Security</text>
  <text x="114" y="76" >Risks</text>
  <line x1="40" y1="104" x2="48" y2="104" class="solid"></line>
  <line x1="40" y1="120" x2="48" y2="120" class="solid"></line>
  <line x1="40" y1="136" x2="48" y2="136" class="solid"></line>
  <line x1="40" y1="152" x2="48" y2="152" class="solid"></line>
  <text x="58" y="108" >SQL</text>
  <text x="90" y="108" >injection</text>
  <text x="58" y="124" >XSS</text>
  <text x="90" y="124" >attacks</text>
  <text x="58" y="140" >Auth</text>
  <text x="98" y="140" >flaws</text>
  <text x="58" y="156" >Data</text>
  <text x="98" y="156" >exposure</text>
  <rect x="196" y="56" width="144" height="112" class="solid nofill" rx="0"></rect>
  <text x="210" y="76" >Quality</text>
  <text x="274" y="76" >Risks</text>
  <line x1="208" y1="104" x2="216" y2="104" class="solid"></line>
  <line x1="208" y1="120" x2="216" y2="120" class="solid"></line>
  <line x1="208" y1="136" x2="216" y2="136" class="solid"></line>
  <line x1="208" y1="152" x2="216" y2="152" class="solid"></line>
  <text x="226" y="108" >Subtle</text>
  <text x="282" y="108" >bugs</text>
  <text x="226" y="124" >Edge</text>
  <text x="266" y="124" >cases</text>
  <text x="226" y="140" >Memory</text>
  <text x="282" y="140" >leaks</text>
  <text x="226" y="156" >Race</text>
  <text x="266" y="156" >conds</text>
  <rect x="364" y="56" width="144" height="112" class="solid nofill" rx="0"></rect>
  <text x="378" y="76" >Governance</text>
  <text x="466" y="76" >Risks</text>
  <line x1="376" y1="104" x2="384" y2="104" class="solid"></line>
  <line x1="376" y1="120" x2="384" y2="120" class="solid"></line>
  <line x1="376" y1="136" x2="384" y2="136" class="solid"></line>
  <line x1="376" y1="152" x2="384" y2="152" class="solid"></line>
  <text x="394" y="108" >No</text>
  <text x="418" y="108" >audit</text>
  <text x="466" y="108" >trail</text>
  <text x="394" y="124" >Compliance</text>
  <text x="482" y="124" >?</text>
  <text x="394" y="140" >Who&#39;s</text>
  <text x="442" y="140" >liable?</text>
  <text x="394" y="156" >Review</text>
  <text x="450" y="156" >burden</text>
  <text x="170" y="28" >Risks</text>
  <text x="218" y="28" >of</text>
  <text x="242" y="28" >AI</text>
  <line x1="256" y1="24" x2="264" y2="24" class="solid"></line>
  <text x="266" y="28" >Generated</text>
  <text x="346" y="28" >Traditional</text>
  <text x="442" y="28" >Code</text>
  <line x1="636" y1="16" x2="636" y2="48" class="solid"></line>
  <line x1="628" y1="48" x2="628" y2="176" class="solid"></line>
  <line x1="636" y1="176" x2="636" y2="192" class="solid"></line>
  <text x="26" y="204" >Result:</text>
  <text x="90" y="204" >Enterprises</text>
  <text x="186" y="204" >hesitant</text>
  <text x="258" y="204" >to</text>
  <text x="282" y="204" >deploy</text>
  <text x="338" y="204" >AI</text>
  <line x1="352" y1="200" x2="360" y2="200" class="solid"></line>
  <text x="362" y="204" >generated</text>
  <text x="442" y="204" >code</text>
  <text x="482" y="204" >to</text>
  <text x="506" y="204" >production</text>
  <g>
    <line x1="4" y1="8" x2="628" y2="8" class="solid"></line>
    <line x1="4" y1="8" x2="4" y2="216" class="solid"></line>
    <line x1="628" y1="192" x2="628" y2="216" class="solid"></line>
    <line x1="4" y1="216" x2="628" y2="216" class="solid"></line>
  </g>
</svg>