<svg xmlns="http://www.w3.org/2000/svg" width="648" height="528" class="svgbob">
  <style>.svgbob line, .svgbob path, .svgbob circle, .svgbob rect, .svgbob polygon {
  stroke: black;
  stroke-width: 2;
  stroke-opacity: 1;
  fill-opacity: 1;
  stroke-linecap: round;
  stroke-linejoin: miter;
}

.svgbob text {
  white-space: pre;
  fill: black;
  font-family: Iosevka Fixed, monospace;
  font-size: 14px;
}

.svgbob rect.backdrop {
  stroke: none;
  fill: white;
}

.svgbob .broken {
  stroke-dasharray: 8;
}

.svgbob .filled {
  fill: black;
}

.svgbob .bg_filled {
  fill: white;
  stroke-width: 1;
}

.svgbob .nofill {
  fill: white;
}

.svgbob .end_marked_arrow {
  marker-end: url(#arrow);
}

.svgbob .start_marked_arrow {
  marker-start: url(#arrow);
}

.svgbob .end_marked_diamond {
  marker-end: url(#diamond);
}

.svgbob .start_marked_diamond {
  marker-start: url(#diamond);
}

.svgbob .end_marked_circle {
  marker-end: url(#circle);
}

.svgbob .start_marked_circle {
  marker-start: url(#circle);
}

.svgbob .end_marked_open_circle {
  marker-end: url(#open_circle);
}

.svgbob .start_marked_open_circle {
  marker-start: url(#open_circle);
}

.svgbob .end_marked_big_open_circle {
  marker-end: url(#big_open_circle);
}

.svgbob .start_marked_big_open_circle {
  marker-start: url(#big_open_circle);
}

</style>
  <defs>
    <marker id="arrow" viewBox="-2 -2 8 8" refX="4" refY="2" markerWidth="7" markerHeight="7" orient="auto-start-reverse">
      <polygon points="0,0 0,4 4,2 0,0"></polygon>
    </marker>
    <marker id="diamond" viewBox="-2 -2 8 8" refX="4" refY="2" markerWidth="7" markerHeight="7" orient="auto-start-reverse">
      <polygon points="0,2 2,0 4,2 2,4 0,2"></polygon>
    </marker>
    <marker id="circle" viewBox="0 0 8 8" refX="4" refY="4" markerWidth="7" markerHeight="7" orient="auto-start-reverse">
      <circle cx="4" cy="4" r="2" class="filled"></circle>
    </marker>
    <marker id="open_circle" viewBox="0 0 8 8" refX="4" refY="4" markerWidth="7" markerHeight="7" orient="auto-start-reverse">
      <circle cx="4" cy="4" r="2" class="bg_filled"></circle>
    </marker>
    <marker id="big_open_circle" viewBox="0 0 8 8" refX="4" refY="4" markerWidth="7" markerHeight="7" orient="auto-start-reverse">
      <circle cx="4" cy="4" r="3" class="bg_filled"></circle>
    </marker>
  </defs>
  <rect class="backdrop" x="0" y="0" width="648" height="528"></rect>
  <rect x="108" y="424" width="432" height="48" class="solid nofill" rx="0"></rect>
  <text x="202" y="444" >Mendix</text>
  <text x="258" y="444" >Model</text>
  <text x="306" y="444" >SDK</text>
  <path d="M 208,448 A 16,16 0,0,0 208,464" class="nofill"></path>
  <text x="210" y="460" >source</text>
  <text x="266" y="460" >of</text>
  <text x="290" y="460" >truth</text>
  <path d="M 328,448 A 16,16 0,0,1 328,464" class="nofill"></path>
  <text x="170" y="28" >Hybrid</text>
  <text x="226" y="28" >Query</text>
  <text x="274" y="28" >Architecture</text>
  <line x1="636" y1="16" x2="636" y2="48" class="solid"></line>
  <line x1="620" y1="48" x2="620" y2="192" class="solid"></line>
  <text x="42" y="76" >SQL</text>
  <text x="74" y="76" >Catalog</text>
  <text x="186" y="76" >SPARQL</text>
  <text x="330" y="76" >Cypher</text>
  <text x="458" y="76" >GraphQL</text>
  <text x="186" y="92" >Endpoint</text>
  <text x="330" y="92" >Endpoint</text>
  <text x="458" y="92" >Endpoint</text>
  <text x="42" y="108" >SELECT</text>
  <text x="98" y="108" >*</text>
  <text x="42" y="124" >FROM</text>
  <text x="82" y="124" >CATALOG</text>
  <text x="178" y="124" >PREFIX</text>
  <text x="234" y="124" >mx:</text>
  <text x="314" y="124" >MATCH</text>
  <path d="M 368,112 A 16,16 0,0,0 368,128" class="nofill"></path>
  <text x="370" y="124" >n</text>
  <path d="M 376,112 A 16,16 0,0,1 376,128" class="nofill"></path>
  <text x="450" y="124" >query</text>
  <text x="498" y="124" >{</text>
  <text x="42" y="140" >.ENTITIES</text>
  <text x="178" y="140" >SELECT</text>
  <text x="234" y="140" >?s</text>
  <line x1="312" y1="136" x2="320" y2="136" class="solid"></line>
  <text x="322" y="140" >[:REL]</text>
  <line x1="368" y1="136" x2="376" y2="136" class="solid"></line>
  <polygon points="376,132 384,136 376,140" class="filled"></polygon>
  <text x="466" y="140" >entity</text>
  <text x="522" y="140" >{</text>
  <line x1="300" y1="192" x2="300" y2="212" class="solid"></line>
  <line x1="628" y1="192" x2="628" y2="224" class="solid"></line>
  <polygon points="296,212 304,212 300,224" class="filled"></polygon>
  <line x1="620" y1="224" x2="620" y2="240" class="solid"></line>
  <text x="202" y="252" >Unified</text>
  <text x="266" y="252" >Graph</text>
  <text x="314" y="252" >Model</text>
  <line x1="556" y1="240" x2="556" y2="272" class="solid"></line>
  <line x1="628" y1="240" x2="628" y2="272" class="solid"></line>
  <line x1="548" y1="272" x2="548" y2="384" class="solid"></line>
  <line x1="620" y1="272" x2="620" y2="304" class="solid"></line>
  <text x="202" y="300" >In</text>
  <line x1="216" y1="296" x2="224" y2="296" class="solid"></line>
  <text x="226" y="300" >Memory</text>
  <text x="282" y="300" >Graph</text>
  <path d="M 336,288 A 16,16 0,0,0 336,304" class="nofill"></path>
  <text x="338" y="300" >on</text>
  <text x="362" y="300" >load</text>
  <path d="M 392,288 A 16,16 0,0,1 392,304" class="nofill"></path>
  <line x1="556" y1="304" x2="556" y2="320" class="solid"></line>
  <line x1="628" y1="304" x2="628" y2="320" class="solid"></line>
  <line x1="128" y1="328" x2="136" y2="328" class="solid"></line>
  <text x="146" y="332" >Nodes</text>
  <line x1="188" y1="320" x2="188" y2="352" class="broken"></line>
  <text x="202" y="332" >Entity,</text>
  <text x="266" y="332" >Attribute,</text>
  <text x="354" y="332" >Microflow,</text>
  <text x="442" y="332" >Page,</text>
  <line x1="620" y1="320" x2="620" y2="384" class="solid"></line>
  <line x1="128" y1="344" x2="136" y2="344" class="solid"></line>
  <text x="146" y="348" >Edges</text>
  <text x="202" y="348" >ass</text>
  <line x1="228" y1="348" x2="228" y2="344" class="solid end_marked_open_circle"></line>
  <text x="234" y="348" >ciation,</text>
  <text x="306" y="348" >uses,</text>
  <text x="354" y="348" >contains,</text>
  <text x="434" y="348" >calls,</text>
  <line x1="128" y1="360" x2="136" y2="360" class="solid"></line>
  <text x="146" y="364" >Properties:</text>
  <text x="242" y="364" >name,</text>
  <text x="290" y="364" >type,</text>
  <text x="338" y="364" >documentation,</text>
  <text x="458" y="364" >...</text>
  <line x1="300" y1="384" x2="300" y2="404" class="solid"></line>
  <line x1="556" y1="384" x2="556" y2="416" class="solid"></line>
  <line x1="628" y1="384" x2="628" y2="416" class="solid"></line>
  <polygon points="296,404 304,404 300,416" class="filled"></polygon>
  <line x1="620" y1="416" x2="620" y2="496" class="solid"></line>
  <text x="490" y="332" >...</text>
  <text x="490" y="348" >...</text>
  <g>
    <line x1="4" y1="8" x2="628" y2="8" class="solid"></line>
    <line x1="4" y1="8" x2="4" y2="504" class="solid"></line>
    <line x1="4" y1="504" x2="628" y2="504" class="solid"></line>
  </g>
  <g>
    <line x1="28" y1="56" x2="140" y2="56" class="solid"></line>
    <line x1="28" y1="56" x2="28" y2="152" class="solid"></line>
    <line x1="140" y1="56" x2="140" y2="152" class="solid"></line>
    <line x1="28" y1="152" x2="140" y2="152" class="solid"></line>
    <line x1="84" y1="152" x2="84" y2="184" class="solid"></line>
    <line x1="164" y1="56" x2="276" y2="56" class="solid"></line>
    <line x1="164" y1="56" x2="164" y2="152" class="solid"></line>
    <line x1="276" y1="56" x2="276" y2="152" class="solid"></line>
    <line x1="164" y1="152" x2="276" y2="152" class="solid"></line>
    <line x1="220" y1="152" x2="220" y2="184" class="solid"></line>
    <line x1="300" y1="56" x2="412" y2="56" class="solid"></line>
    <line x1="300" y1="56" x2="300" y2="152" class="solid"></line>
    <line x1="412" y1="56" x2="412" y2="152" class="solid"></line>
    <line x1="300" y1="152" x2="412" y2="152" class="solid"></line>
    <line x1="356" y1="152" x2="356" y2="184" class="solid"></line>
    <line x1="436" y1="56" x2="548" y2="56" class="solid"></line>
    <line x1="436" y1="56" x2="436" y2="152" class="solid"></line>
    <line x1="548" y1="56" x2="548" y2="152" class="solid"></line>
    <line x1="436" y1="152" x2="548" y2="152" class="solid"></line>
    <line x1="492" y1="152" x2="492" y2="184" class="solid"></line>
    <line x1="84" y1="184" x2="492" y2="184" class="solid"></line>
  </g>
  <g>
    <line x1="84" y1="232" x2="548" y2="232" class="solid"></line>
    <line x1="84" y1="232" x2="84" y2="488" class="solid"></line>
    <line x1="548" y1="416" x2="548" y2="488" class="solid"></line>
    <line x1="84" y1="488" x2="548" y2="488" class="solid"></line>
  </g>
  <g>
    <line x1="108" y1="280" x2="540" y2="280" class="solid"></line>
    <line x1="108" y1="280" x2="108" y2="376" class="solid"></line>
    <line x1="540" y1="280" x2="540" y2="304" class="solid"></line>
    <line x1="540" y1="320" x2="540" y2="376" class="solid"></line>
    <line x1="108" y1="376" x2="540" y2="376" class="solid"></line>
  </g>
</svg>