<svg xmlns="http://www.w3.org/2000/svg" width="648" height="272" class="svgbob">
  <style>.svgbob line, .svgbob path, .svgbob circle, .svgbob rect, .svgbob polygon {
  stroke: black;
  stroke-width: 2;
  stroke-opacity: 1;
  fill-opacity: 1;
  stroke-linecap: round;
  stroke-linejoin: miter;
}

.svgbob text {
  white-space: pre;
  fill: black;
  font-family: Iosevka Fixed, monospace;
  font-size: 14px;
}

.svgbob rect.backdrop {
  stroke: none;
  fill: white;
}

.svgbob .broken {
  stroke-dasharray: 8;
}

.svgbob .filled {
  fill: black;
}

.svgbob .bg_filled {
  fill: white;
  stroke-width: 1;
}

.svgbob .nofill {
  fill: white;
}

.svgbob .end_marked_arrow {
  marker-end: url(#arrow);
}

.svgbob .start_marked_arrow {
  marker-start: url(#arrow);
}

.svgbob .end_marked_diamond {
  marker-end: url(#diamond);
}

.svgbob .start_marked_diamond {
  marker-start: url(#diamond);
}

.svgbob .end_marked_circle {
  marker-end: url(#circle);
}

.svgbob .start_marked_circle {
  marker-start: url(#circle);
}

.svgbob .end_marked_open_circle {
  marker-end: url(#open_circle);
}

.svgbob .start_marked_open_circle {
  marker-start: url(#open_circle);
}

.svgbob .end_marked_big_open_circle {
  marker-end: url(#big_open_circle);
}

.svgbob .start_marked_big_open_circle {
  marker-start: url(#big_open_circle);
}

</style>
  <defs>
    <marker id="arrow" viewBox="-2 -2 8 8" refX="4" refY="2" markerWidth="7" markerHeight="7" orient="auto-start-reverse">
      <polygon points="0,0 0,4 4,2 0,0"></polygon>
    </marker>
    <marker id="diamond" viewBox="-2 -2 8 8" refX="4" refY="2" markerWidth="7" markerHeight="7" orient="auto-start-reverse">
      <polygon points="0,2 2,0 4,2 2,4 0,2"></polygon>
    </marker>
    <marker id="circle" viewBox="0 0 8 8" refX="4" refY="4" markerWidth="7" markerHeight="7" orient="auto-start-reverse">
      <circle cx="4" cy="4" r="2" class="filled"></circle>
    </marker>
    <marker id="open_circle" viewBox="0 0 8 8" refX="4" refY="4" markerWidth="7" markerHeight="7" orient="auto-start-reverse">
      <circle cx="4" cy="4" r="2" class="bg_filled"></circle>
    </marker>
    <marker id="big_open_circle" viewBox="0 0 8 8" refX="4" refY="4" markerWidth="7" markerHeight="7" orient="auto-start-reverse">
      <circle cx="4" cy="4" r="3" class="bg_filled"></circle>
    </marker>
  </defs>
  <rect class="backdrop" x="0" y="0" width="648" height="272"></rect>
  <text x="170" y="28" >Mendix:</text>
  <text x="234" y="28" >Safe</text>
  <text x="274" y="28" >AI</text>
  <line x1="288" y1="24" x2="296" y2="24" class="solid"></line>
  <text x="298" y="28" >Generated</text>
  <text x="378" y="28" >Applications</text>
  <line x1="636" y1="16" x2="636" y2="48" class="solid"></line>
  <line x1="628" y1="48" x2="628" y2="64" class="solid"></line>
  <line x1="636" y1="64" x2="636" y2="80" class="solid"></line>
  <line x1="628" y1="80" x2="628" y2="112" class="solid"></line>
  <line x1="636" y1="112" x2="636" y2="128" class="solid"></line>
  <line x1="628" y1="128" x2="628" y2="208" class="solid"></line>
  <line x1="636" y1="208" x2="636" y2="224" class="solid"></line>
  <text x="26" y="236" >Result:</text>
  <text x="90" y="236" >Enterprises</text>
  <text x="186" y="236" >can</text>
  <text x="218" y="236" >confidently</text>
  <text x="314" y="236" >deploy</text>
  <text x="370" y="236" >AI</text>
  <line x1="384" y1="232" x2="392" y2="232" class="solid"></line>
  <text x="394" y="236" >generated</text>
  <text x="474" y="236" >Mendix</text>
  <text x="530" y="236" >apps</text>
  <line x1="196" y1="56" x2="340" y2="56" class="solid"></line>
  <text x="42" y="76" >Security</text>
  <text x="114" y="76" >Built</text>
  <line x1="152" y1="72" x2="160" y2="72" class="solid"></line>
  <text x="162" y="76" >in</text>
  <line x1="180" y1="64" x2="180" y2="80" class="solid"></line>
  <line x1="204" y1="64" x2="204" y2="80" class="solid"></line>
  <text x="218" y="76" >Quality</text>
  <text x="282" y="76" >Assured</text>
  <line x1="348" y1="64" x2="348" y2="80" class="solid"></line>
  <line x1="172" y1="80" x2="172" y2="96" class="solid"></line>
  <line x1="196" y1="80" x2="196" y2="96" class="solid"></line>
  <line x1="340" y1="80" x2="340" y2="112" class="solid"></line>
  <text x="58" y="108" >Platform</text>
  <text x="130" y="108" >handles</text>
  <line x1="188" y1="96" x2="188" y2="112" class="solid"></line>
  <line x1="204" y1="96" x2="204" y2="128" class="solid"></line>
  <text x="234" y="108" >Model</text>
  <text x="282" y="108" >valid</text>
  <line x1="320" y1="104" x2="328" y2="104" class="solid"></line>
  <text x="58" y="124" >SQL,</text>
  <text x="98" y="124" >XSS,</text>
  <text x="138" y="124" >auth</text>
  <line x1="180" y1="112" x2="180" y2="128" class="solid"></line>
  <text x="234" y="124" >ation</text>
  <text x="282" y="124" >catches</text>
  <line x1="348" y1="112" x2="348" y2="128" class="solid"></line>
  <text x="58" y="140" >Role</text>
  <line x1="88" y1="136" x2="96" y2="136" class="solid"></line>
  <text x="98" y="140" >based</text>
  <text x="226" y="140" >errors</text>
  <text x="282" y="140" >early</text>
  <text x="58" y="156" >access</text>
  <text x="114" y="156" >control</text>
  <text x="226" y="156" >Runtime</text>
  <text x="290" y="156" >safe</text>
  <line x1="320" y1="152" x2="328" y2="152" class="solid"></line>
  <text x="58" y="172" >Secure</text>
  <text x="114" y="172" >by</text>
  <text x="226" y="172" >guards</text>
  <text x="58" y="188" >default</text>
  <line x1="208" y1="184" x2="216" y2="184" class="solid"></line>
  <text x="226" y="188" >Type</text>
  <text x="266" y="188" >safety</text>
  <line x1="364" y1="56" x2="508" y2="56" class="solid"></line>
  <line x1="372" y1="64" x2="372" y2="80" class="solid"></line>
  <text x="386" y="76" >Governance</text>
  <text x="474" y="76" >Ready</text>
  <line x1="516" y1="64" x2="516" y2="80" class="solid"></line>
  <line x1="364" y1="80" x2="364" y2="112" class="solid"></line>
  <line x1="508" y1="80" x2="508" y2="112" class="solid"></line>
  <line x1="376" y1="104" x2="384" y2="104" class="solid"></line>
  <text x="394" y="108" >Full</text>
  <text x="434" y="108" >audit</text>
  <line x1="372" y1="112" x2="372" y2="128" class="solid"></line>
  <text x="402" y="124" >trail</text>
  <text x="450" y="124" >in</text>
  <text x="474" y="124" >model</text>
  <line x1="516" y1="112" x2="516" y2="128" class="solid"></line>
  <line x1="376" y1="136" x2="384" y2="136" class="solid"></line>
  <text x="394" y="140" >Visual</text>
  <text x="450" y="140" >review</text>
  <text x="394" y="156" >in</text>
  <text x="418" y="156" >Studio</text>
  <text x="474" y="156" >Pro</text>
  <text x="394" y="172" >Compliance</text>
  <text x="394" y="188" >certifications</text>
  <line x1="40" y1="104" x2="48" y2="104" class="solid"></line>
  <line x1="216" y1="104" x2="224" y2="104" class="solid"></line>
  <line x1="40" y1="136" x2="48" y2="136" class="solid"></line>
  <line x1="208" y1="152" x2="216" y2="152" class="solid"></line>
  <line x1="40" y1="168" x2="48" y2="168" class="solid"></line>
  <line x1="376" y1="168" x2="384" y2="168" class="solid"></line>
  <g>
    <line x1="4" y1="8" x2="628" y2="8" class="solid"></line>
    <line x1="4" y1="8" x2="4" y2="248" class="solid"></line>
    <line x1="628" y1="224" x2="628" y2="248" class="solid"></line>
    <line x1="4" y1="248" x2="628" y2="248" class="solid"></line>
  </g>
  <g>
    <line x1="28" y1="56" x2="172" y2="56" class="solid"></line>
    <line x1="28" y1="56" x2="28" y2="200" class="solid"></line>
    <line x1="172" y1="128" x2="172" y2="200" class="solid"></line>
    <line x1="28" y1="200" x2="172" y2="200" class="solid"></line>
  </g>
  <g>
    <line x1="196" y1="128" x2="196" y2="200" class="solid"></line>
    <line x1="340" y1="128" x2="340" y2="200" class="solid"></line>
    <line x1="196" y1="200" x2="340" y2="200" class="solid"></line>
  </g>
  <g>
    <line x1="364" y1="128" x2="364" y2="200" class="solid"></line>
    <line x1="508" y1="128" x2="508" y2="200" class="solid"></line>
    <line x1="364" y1="200" x2="508" y2="200" class="solid"></line>
  </g>
</svg>