<svg xmlns="http://www.w3.org/2000/svg" width="648" height="288" class="svgbob">
  <style>.svgbob line, .svgbob path, .svgbob circle, .svgbob rect, .svgbob polygon {
  stroke: black;
  stroke-width: 2;
  stroke-opacity: 1;
  fill-opacity: 1;
  stroke-linecap: round;
  stroke-linejoin: miter;
}

.svgbob text {
  white-space: pre;
  fill: black;
  font-family: Iosevka Fixed, monospace;
  font-size: 14px;
}

.svgbob rect.backdrop {
  stroke: none;
  fill: white;
}

.svgbob .broken {
  stroke-dasharray: 8;
}

.svgbob .filled {
  fill: black;
}

.svgbob .bg_filled {
  fill: white;
  stroke-width: 1;
}

.svgbob .nofill {
  fill: white;
}

.svgbob .end_marked_arrow {
  marker-end: url(#arrow);
}

.svgbob .start_marked_arrow {
  marker-start: url(#arrow);
}

.svgbob .end_marked_diamond {
  marker-end: url(#diamond);
}

.svgbob .start_marked_diamond {
  marker-start: url(#diamond);
}

.svgbob .end_marked_circle {
  marker-end: url(#circle);
}

.svgbob .start_marked_circle {
  marker-start: url(#circle);
}

.svgbob .end_marked_open_circle {
  marker-end: url(#open_circle);
}

.svgbob .start_marked_open_circle {
  marker-start: url(#open_circle);
}

.svgbob .end_marked_big_open_circle {
  marker-end: url(#big_open_circle);
}

.svgbob .start_marked_big_open_circle {
  marker-start: url(#big_open_circle);
}

</style>
  <defs>
    <marker id="arrow" viewBox="-2 -2 8 8" refX="4" refY="2" markerWidth="7" markerHeight="7" orient="auto-start-reverse">
      <polygon points="0,0 0,4 4,2 0,0"></polygon>
    </marker>
    <marker id="diamond" viewBox="-2 -2 8 8" refX="4" refY="2" markerWidth="7" markerHeight="7" orient="auto-start-reverse">
      <polygon points="0,2 2,0 4,2 2,4 0,2"></polygon>
    </marker>
    <marker id="circle" viewBox="0 0 8 8" refX="4" refY="4" markerWidth="7" markerHeight="7" orient="auto-start-reverse">
      <circle cx="4" cy="4" r="2" class="filled"></circle>
    </marker>
    <marker id="open_circle" viewBox="0 0 8 8" refX="4" refY="4" markerWidth="7" markerHeight="7" orient="auto-start-reverse">
      <circle cx="4" cy="4" r="2" class="bg_filled"></circle>
    </marker>
    <marker id="big_open_circle" viewBox="0 0 8 8" refX="4" refY="4" markerWidth="7" markerHeight="7" orient="auto-start-reverse">
      <circle cx="4" cy="4" r="3" class="bg_filled"></circle>
    </marker>
  </defs>
  <rect class="backdrop" x="0" y="0" width="648" height="288"></rect>
  <text x="26" y="28" >User:</text>
  <text x="26" y="44" >[Pro</text>
  <line x1="60" y1="32" x2="60" y2="36" class="solid"></line>
  <polygon points="56,36 64,36 60,48" class="filled"></polygon>
  <text x="66" y="44" >ides:</text>
  <line x1="636" y1="48" x2="636" y2="80" class="solid"></line>
  <text x="26" y="76" >Claude</text>
  <text x="82" y="76" >Code:</text>
  <text x="26" y="92" >1.</text>
  <text x="50" y="92" >Scan</text>
  <text x="90" y="92" >codebase</text>
  <text x="162" y="92" >structure</text>
  <line x1="628" y1="80" x2="628" y2="112" class="solid"></line>
  <text x="26" y="108" >2.</text>
  <text x="50" y="108" >Parse</text>
  <text x="98" y="108" >JPA</text>
  <text x="130" y="108" >entities:</text>
  <text x="50" y="124" >@Entity</text>
  <text x="114" y="124" >Customer</text>
  <text x="186" y="124" >{</text>
  <text x="202" y="124" >@Column</text>
  <text x="586" y="124" >...</text>
  <path d="M 608,112 A 16,16 0,0,1 608,128" class="nofill"></path>
  <line x1="620" y1="112" x2="620" y2="128" class="solid"></line>
  <text x="50" y="140" >Parse</text>
  <text x="98" y="140" >relationships:</text>
  <line x1="628" y1="128" x2="628" y2="208" class="solid"></line>
  <text x="50" y="156" >@ManyToOne</text>
  <text x="138" y="156" >Order.customer</text>
  <text x="50" y="172" >Analyze</text>
  <text x="114" y="172" >service</text>
  <text x="178" y="172" >methods:</text>
  <text x="50" y="188" >calculateTotal</text>
  <text x="50" y="204" >Map</text>
  <text x="82" y="204" >REST</text>
  <text x="122" y="204" >endpoints:</text>
  <text x="50" y="220" >GET</text>
  <line x1="88" y1="208" x2="80" y2="224" class="solid"></line>
  <text x="90" y="220" >customers</text>
  <text x="242" y="220" >PAGE</text>
  <line x1="620" y1="208" x2="620" y2="224" class="solid"></line>
  <text x="26" y="236" >6.</text>
  <text x="50" y="236" >Generate</text>
  <text x="122" y="236" >complete</text>
  <text x="194" y="236" >MDL</text>
  <text x="226" y="236" >script</text>
  <text x="26" y="252" >7.</text>
  <text x="50" y="252" >Validate</text>
  <text x="122" y="252" >and</text>
  <text x="154" y="252" >iterate</text>
  <text x="114" y="44" >GitHub</text>
  <text x="170" y="44" >repo</text>
  <text x="210" y="44" >URL</text>
  <text x="242" y="44" >or</text>
  <text x="266" y="44" >source</text>
  <text x="322" y="44" >files]</text>
  <text x="266" y="124" >name;</text>
  <text x="314" y="124" >}</text>
  <text x="330" y="124" >→</text>
  <text x="346" y="124" >CREATE</text>
  <text x="402" y="124" >ENTITY</text>
  <text x="458" y="124" >Customer</text>
  <path d="M 536,112 A 16,16 0,0,0 536,128" class="nofill"></path>
  <text x="538" y="124" >Name:</text>
  <text x="26" y="140" >3.</text>
  <text x="258" y="156" >→</text>
  <text x="274" y="156" >CREATE</text>
  <text x="330" y="156" >ASSOCIATION</text>
  <text x="426" y="156" >Order</text>
  <line x1="464" y1="160" x2="472" y2="160" class="solid"></line>
  <text x="474" y="156" >Customer</text>
  <text x="546" y="156" >...</text>
  <text x="26" y="172" >4.</text>
  <text x="258" y="188" >MICROFLOW</text>
  <text x="338" y="188" >CalculateTotal</text>
  <text x="458" y="188" >...</text>
  <text x="26" y="204" >5.</text>
  <text x="282" y="220" >Customer</text>
  <line x1="344" y1="224" x2="352" y2="224" class="solid"></line>
  <text x="354" y="220" >Overview</text>
  <text x="426" y="220" >with</text>
  <text x="466" y="220" >DataGrid</text>
  <text x="74" y="28" >Migrate this Spring Boot application to Mendix</text>
  <g>
    <line x1="4" y1="8" x2="628" y2="8" class="solid"></line>
    <line x1="4" y1="8" x2="4" y2="264" class="solid"></line>
    <line x1="628" y1="8" x2="628" y2="48" class="solid"></line>
    <line x1="628" y1="224" x2="628" y2="264" class="solid"></line>
    <line x1="4" y1="264" x2="628" y2="264" class="solid"></line>
  </g>
  <g>
    <path d="M 168,176 A 16,16 0,0,0 168,192" class="nofill"></path>
    <path d="M 168,176 A 16,16 0,0,1 168,192" class="nofill"></path>
  </g>
  <g>
    <text x="186" y="188">→</text>
    <text x="202" y="188">CREATE</text>
  </g>
  <g>
    <text x="170" y="220">→</text>
    <text x="186" y="220">CREATE</text>
  </g>
</svg>