<svg xmlns="http://www.w3.org/2000/svg" width="648" height="512" class="svgbob">
  <style>.svgbob line, .svgbob path, .svgbob circle, .svgbob rect, .svgbob polygon {
  stroke: black;
  stroke-width: 2;
  stroke-opacity: 1;
  fill-opacity: 1;
  stroke-linecap: round;
  stroke-linejoin: miter;
}

.svgbob text {
  white-space: pre;
  fill: black;
  font-family: Iosevka Fixed, monospace;
  font-size: 14px;
}

.svgbob rect.backdrop {
  stroke: none;
  fill: white;
}

.svgbob .broken {
  stroke-dasharray: 8;
}

.svgbob .filled {
  fill: black;
}

.svgbob .bg_filled {
  fill: white;
  stroke-width: 1;
}

.svgbob .nofill {
  fill: white;
}

.svgbob .end_marked_arrow {
  marker-end: url(#arrow);
}

.svgbob .start_marked_arrow {
  marker-start: url(#arrow);
}

.svgbob .end_marked_diamond {
  marker-end: url(#diamond);
}

.svgbob .start_marked_diamond {
  marker-start: url(#diamond);
}

.svgbob .end_marked_circle {
  marker-end: url(#circle);
}

.svgbob .start_marked_circle {
  marker-start: url(#circle);
}

.svgbob .end_marked_open_circle {
  marker-end: url(#open_circle);
}

.svgbob .start_marked_open_circle {
  marker-start: url(#open_circle);
}

.svgbob .end_marked_big_open_circle {
  marker-end: url(#big_open_circle);
}

.svgbob .start_marked_big_open_circle {
  marker-start: url(#big_open_circle);
}

</style>
  <defs>
    <marker id="arrow" viewBox="-2 -2 8 8" refX="4" refY="2" markerWidth="7" markerHeight="7" orient="auto-start-reverse">
      <polygon points="0,0 0,4 4,2 0,0"></polygon>
    </marker>
    <marker id="diamond" viewBox="-2 -2 8 8" refX="4" refY="2" markerWidth="7" markerHeight="7" orient="auto-start-reverse">
      <polygon points="0,2 2,0 4,2 2,4 0,2"></polygon>
    </marker>
    <marker id="circle" viewBox="0 0 8 8" refX="4" refY="4" markerWidth="7" markerHeight="7" orient="auto-start-reverse">
      <circle cx="4" cy="4" r="2" class="filled"></circle>
    </marker>
    <marker id="open_circle" viewBox="0 0 8 8" refX="4" refY="4" markerWidth="7" markerHeight="7" orient="auto-start-reverse">
      <circle cx="4" cy="4" r="2" class="bg_filled"></circle>
    </marker>
    <marker id="big_open_circle" viewBox="0 0 8 8" refX="4" refY="4" markerWidth="7" markerHeight="7" orient="auto-start-reverse">
      <circle cx="4" cy="4" r="3" class="bg_filled"></circle>
    </marker>
  </defs>
  <rect class="backdrop" x="0" y="0" width="648" height="512"></rect>
  <text x="122" y="28" >AI</text>
  <text x="146" y="28" >Agent:</text>
  <line x1="636" y1="32" x2="636" y2="48" class="solid"></line>
  <text x="26" y="60" >Step</text>
  <text x="66" y="60" >1:</text>
  <text x="90" y="60" >Discover</text>
  <text x="162" y="60" >related</text>
  <text x="226" y="60" >entities</text>
  <path d="M 304,48 A 16,16 0,0,0 304,64" class="nofill"></path>
  <text x="306" y="60" >Cypher</text>
  <path d="M 352,48 A 16,16 0,0,1 352,64" class="nofill"></path>
  <line x1="628" y1="48" x2="628" y2="176" class="solid"></line>
  <text x="42" y="92" >MATCH</text>
  <path d="M 96,80 A 16,16 0,0,0 96,96" class="nofill"></path>
  <text x="98" y="92" >c:Entity</text>
  <text x="170" y="92" >{name:</text>
  <text x="226" y="92" >&#39;Customer&#39;}</text>
  <path d="M 312,80 A 16,16 0,0,1 312,96" class="nofill"></path>
  <polygon points="328,84 320,88 328,92" class="filled"></polygon>
  <line x1="328" y1="88" x2="336" y2="88" class="solid"></line>
  <text x="338" y="92" >[:ASSOCIATION*1..2]</text>
  <line x1="488" y1="88" x2="496" y2="88" class="solid"></line>
  <path d="M 504,80 A 16,16 0,0,0 504,96" class="nofill"></path>
  <text x="506" y="92" >related</text>
  <path d="M 560,80 A 16,16 0,0,1 560,96" class="nofill"></path>
  <text x="42" y="108" >RETURN</text>
  <text x="98" y="108" >DISTINCT</text>
  <text x="170" y="108" >related.qualifiedName</text>
  <line x1="636" y1="96" x2="636" y2="128" class="solid"></line>
  <text x="106" y="140" >[CRM.Customer,</text>
  <text x="226" y="140" >CRM.CustomerAddress,</text>
  <line x1="620" y1="128" x2="620" y2="144" class="solid"></line>
  <text x="114" y="156" >CRM.CustomerNote,</text>
  <text x="258" y="156" >Sales.Order]</text>
  <line x1="636" y1="144" x2="636" y2="160" class="solid"></line>
  <line x1="636" y1="176" x2="636" y2="192" class="solid"></line>
  <text x="26" y="204" >Step</text>
  <text x="66" y="204" >2:</text>
  <text x="90" y="204" >Check</text>
  <text x="138" y="204" >which</text>
  <text x="186" y="204" >already</text>
  <text x="250" y="204" >have</text>
  <text x="290" y="204" >Phone</text>
  <path d="M 344,192 A 16,16 0,0,0 344,208" class="nofill"></path>
  <text x="346" y="204" >Cypher</text>
  <path d="M 392,192 A 16,16 0,0,1 392,208" class="nofill"></path>
  <line x1="628" y1="192" x2="628" y2="320" class="solid"></line>
  <text x="42" y="236" >MATCH</text>
  <path d="M 96,224 A 16,16 0,0,0 96,240" class="nofill"></path>
  <text x="98" y="236" >e:Entity</text>
  <path d="M 160,224 A 16,16 0,0,1 160,240" class="nofill"></path>
  <line x1="168" y1="232" x2="176" y2="232" class="solid"></line>
  <text x="178" y="236" >[:HAS</text>
  <line x1="216" y1="240" x2="224" y2="240" class="solid"></line>
  <text x="226" y="236" >ATTRIBUTE]</text>
  <line x1="304" y1="232" x2="312" y2="232" class="solid"></line>
  <polygon points="312,228 320,232 312,236" class="filled"></polygon>
  <path d="M 328,224 A 16,16 0,0,0 328,240" class="nofill"></path>
  <text x="330" y="236" >a:Attribute</text>
  <text x="426" y="236" >{name:</text>
  <text x="482" y="236" >&#39;Phone&#39;}</text>
  <path d="M 544,224 A 16,16 0,0,1 544,240" class="nofill"></path>
  <text x="42" y="252" >WHERE</text>
  <text x="90" y="252" >e.qualifiedName</text>
  <text x="218" y="252" >IN</text>
  <text x="242" y="252" >$relatedEntities</text>
  <text x="42" y="268" >RETURN</text>
  <text x="98" y="268" >e.qualifiedName</text>
  <line x1="636" y1="256" x2="636" y2="304" class="solid"></line>
  <text x="42" y="300" >Result:</text>
  <text x="106" y="300" >[CRM.Customer]</text>
  <line x1="240" y1="288" x2="232" y2="304" class="solid"></line>
  <line x1="248" y1="288" x2="240" y2="304" class="solid"></line>
  <text x="258" y="300" >Only</text>
  <text x="298" y="300" >Customer</text>
  <text x="370" y="300" >has</text>
  <text x="402" y="300" >it</text>
  <line x1="636" y1="320" x2="636" y2="336" class="solid"></line>
  <text x="26" y="348" >Step</text>
  <text x="66" y="348" >3:</text>
  <text x="90" y="348" >Generate</text>
  <text x="162" y="348" >MDL</text>
  <text x="194" y="348" >for</text>
  <text x="226" y="348" >missing</text>
  <text x="290" y="348" >entities</text>
  <line x1="628" y1="336" x2="628" y2="448" class="solid"></line>
  <text x="42" y="380" >ALTER</text>
  <text x="90" y="380" >ENTITY</text>
  <text x="146" y="380" >CRM.CustomerAddress</text>
  <text x="306" y="380" >ADD</text>
  <text x="338" y="380" >Phone</text>
  <line x1="380" y1="368" x2="380" y2="400" class="broken"></line>
  <text x="394" y="380" >String</text>
  <text x="450" y="380" >20</text>
  <text x="474" y="380" >;</text>
  <line x1="636" y1="368" x2="636" y2="432" class="solid"></line>
  <text x="42" y="396" >ALTER</text>
  <text x="90" y="396" >ENTITY</text>
  <text x="146" y="396" >CRM.CustomerContact</text>
  <text x="306" y="396" >ADD</text>
  <text x="338" y="396" >Ph</text>
  <line x1="356" y1="396" x2="356" y2="392" class="solid end_marked_open_circle"></line>
  <text x="362" y="396" >ne</text>
  <text x="394" y="396" >String</text>
  <text x="450" y="396" >20</text>
  <text x="474" y="396" >;</text>
  <text x="42" y="412" >ALTER</text>
  <text x="90" y="412" >ENTITY</text>
  <text x="146" y="412" >CRM.CustomerNote</text>
  <text x="282" y="412" >ADD</text>
  <text x="314" y="412" >Phone:</text>
  <text x="370" y="412" >String</text>
  <path d="M 424,400 A 16,16 0,0,0 424,416" class="nofill"></path>
  <text x="426" y="412" >20</text>
  <path d="M 440,400 A 16,16 0,0,1 440,416" class="nofill"></path>
  <text x="450" y="412" >;</text>
  <text x="42" y="428" >ALTER</text>
  <text x="90" y="428" >ENTITY</text>
  <text x="146" y="428" >Sales.Order</text>
  <text x="242" y="428" >ADD</text>
  <text x="274" y="428" >Phone:</text>
  <text x="330" y="428" >String</text>
  <path d="M 384,416 A 16,16 0,0,0 384,432" class="nofill"></path>
  <text x="386" y="428" >20</text>
  <path d="M 400,416 A 16,16 0,0,1 400,432" class="nofill"></path>
  <text x="410" y="428" >;</text>
  <line x1="636" y1="448" x2="636" y2="464" class="solid"></line>
  <text x="26" y="476" >Step</text>
  <text x="66" y="476" >4:</text>
  <text x="90" y="476" >Validate</text>
  <text x="162" y="476" >via</text>
  <text x="194" y="476" >Language</text>
  <text x="266" y="476" >Server,</text>
  <text x="330" y="476" >execute</text>
  <text x="394" y="476" >via</text>
  <text x="426" y="476" >REPL</text>
  <text x="42" y="140" >Result:</text>
  <text x="394" y="140" >CRM.CustomerContact,</text>
  <text x="202" y="28" >Add phone number to all customer-related entities</text>
  <g>
    <line x1="4" y1="8" x2="628" y2="8" class="solid"></line>
    <line x1="4" y1="8" x2="4" y2="488" class="solid"></line>
    <line x1="628" y1="8" x2="628" y2="32" class="solid"></line>
    <line x1="628" y1="464" x2="628" y2="488" class="solid"></line>
    <line x1="4" y1="488" x2="628" y2="488" class="solid"></line>
  </g>
  <g>
    <line x1="28" y1="72" x2="620" y2="72" class="solid"></line>
    <line x1="28" y1="72" x2="28" y2="168" class="solid"></line>
    <line x1="620" y1="72" x2="620" y2="96" class="solid"></line>
    <line x1="28" y1="168" x2="620" y2="168" class="solid"></line>
  </g>
  <g>
    <line x1="28" y1="216" x2="620" y2="216" class="solid"></line>
    <line x1="28" y1="216" x2="28" y2="312" class="solid"></line>
    <line x1="620" y1="216" x2="620" y2="256" class="solid"></line>
    <line x1="28" y1="312" x2="620" y2="312" class="solid"></line>
  </g>
  <g>
    <line x1="28" y1="360" x2="620" y2="360" class="solid"></line>
    <line x1="28" y1="360" x2="28" y2="440" class="solid"></line>
    <line x1="28" y1="440" x2="620" y2="440" class="solid"></line>
  </g>
  <g>
    <path d="M 448,368 A 16,16 0,0,0 448,384" class="nofill"></path>
    <path d="M 448,384 A 16,16 0,0,0 448,400" class="nofill"></path>
  </g>
  <g>
    <path d="M 464,368 A 16,16 0,0,1 464,384" class="nofill"></path>
    <path d="M 464,384 A 16,16 0,0,1 464,400" class="nofill"></path>
  </g>
</svg>