<svg xmlns="http://www.w3.org/2000/svg" width="648" height="1248" class="svgbob">
  <style>.svgbob line, .svgbob path, .svgbob circle, .svgbob rect, .svgbob polygon {
  stroke: black;
  stroke-width: 2;
  stroke-opacity: 1;
  fill-opacity: 1;
  stroke-linecap: round;
  stroke-linejoin: miter;
}

.svgbob text {
  white-space: pre;
  fill: black;
  font-family: Iosevka Fixed, monospace;
  font-size: 14px;
}

.svgbob rect.backdrop {
  stroke: none;
  fill: white;
}

.svgbob .broken {
  stroke-dasharray: 8;
}

.svgbob .filled {
  fill: black;
}

.svgbob .bg_filled {
  fill: white;
  stroke-width: 1;
}

.svgbob .nofill {
  fill: white;
}

.svgbob .end_marked_arrow {
  marker-end: url(#arrow);
}

.svgbob .start_marked_arrow {
  marker-start: url(#arrow);
}

.svgbob .end_marked_diamond {
  marker-end: url(#diamond);
}

.svgbob .start_marked_diamond {
  marker-start: url(#diamond);
}

.svgbob .end_marked_circle {
  marker-end: url(#circle);
}

.svgbob .start_marked_circle {
  marker-start: url(#circle);
}

.svgbob .end_marked_open_circle {
  marker-end: url(#open_circle);
}

.svgbob .start_marked_open_circle {
  marker-start: url(#open_circle);
}

.svgbob .end_marked_big_open_circle {
  marker-end: url(#big_open_circle);
}

.svgbob .start_marked_big_open_circle {
  marker-start: url(#big_open_circle);
}

</style>
  <defs>
    <marker id="arrow" viewBox="-2 -2 8 8" refX="4" refY="2" markerWidth="7" markerHeight="7" orient="auto-start-reverse">
      <polygon points="0,0 0,4 4,2 0,0"></polygon>
    </marker>
    <marker id="diamond" viewBox="-2 -2 8 8" refX="4" refY="2" markerWidth="7" markerHeight="7" orient="auto-start-reverse">
      <polygon points="0,2 2,0 4,2 2,4 0,2"></polygon>
    </marker>
    <marker id="circle" viewBox="0 0 8 8" refX="4" refY="4" markerWidth="7" markerHeight="7" orient="auto-start-reverse">
      <circle cx="4" cy="4" r="2" class="filled"></circle>
    </marker>
    <marker id="open_circle" viewBox="0 0 8 8" refX="4" refY="4" markerWidth="7" markerHeight="7" orient="auto-start-reverse">
      <circle cx="4" cy="4" r="2" class="bg_filled"></circle>
    </marker>
    <marker id="big_open_circle" viewBox="0 0 8 8" refX="4" refY="4" markerWidth="7" markerHeight="7" orient="auto-start-reverse">
      <circle cx="4" cy="4" r="3" class="bg_filled"></circle>
    </marker>
  </defs>
  <rect class="backdrop" x="0" y="0" width="648" height="1248"></rect>
  <rect x="52" y="200" width="112" height="48" class="solid nofill" rx="0"></rect>
  <text x="66" y="220" >validation</text>
  <text x="82" y="236" >.md</text>
  <text x="114" y="236" >✓</text>
  <rect x="188" y="200" width="112" height="48" class="solid nofill" rx="0"></rect>
  <text x="218" y="220" >entity</text>
  <text x="226" y="236" >.md</text>
  <rect x="324" y="200" width="112" height="48" class="solid nofill" rx="0"></rect>
  <text x="362" y="220" >page</text>
  <text x="362" y="236" >.md</text>
  <rect x="460" y="200" width="112" height="48" class="solid nofill" rx="0"></rect>
  <text x="482" y="220" >microflow</text>
  <text x="498" y="236" >.md</text>
  <text x="210" y="28" >Skill</text>
  <line x1="248" y1="24" x2="256" y2="24" class="solid"></line>
  <text x="258" y="28" >Guided</text>
  <text x="314" y="28" >Generation</text>
  <line x1="636" y1="16" x2="636" y2="48" class="solid"></line>
  <line x1="628" y1="48" x2="628" y2="112" class="solid"></line>
  <text x="234" y="76" >User</text>
  <text x="274" y="76" >Request</text>
  <line x1="636" y1="64" x2="636" y2="80" class="solid"></line>
  <line x1="300" y1="112" x2="300" y2="132" class="solid"></line>
  <line x1="636" y1="112" x2="636" y2="144" class="solid"></line>
  <polygon points="296,132 304,132 300,144" class="filled"></polygon>
  <line x1="628" y1="144" x2="628" y2="304" class="solid"></line>
  <text x="210" y="172" >Skill</text>
  <text x="258" y="172" >Selection</text>
  <line x1="636" y1="160" x2="636" y2="192" class="solid"></line>
  <line x1="620" y1="192" x2="620" y2="256" class="solid"></line>
  <line x1="636" y1="256" x2="636" y2="272" class="solid"></line>
  <text x="50" y="284" >Selected:</text>
  <text x="130" y="284" >validation.md</text>
  <path d="M 248,272 A 16,16 0,0,0 248,288" class="nofill"></path>
  <text x="250" y="284" >matches</text>
  <text x="418" y="284" >in</text>
  <text x="442" y="284" >request</text>
  <path d="M 496,272 A 16,16 0,0,1 496,288" class="nofill"></path>
  <line x1="300" y1="304" x2="300" y2="324" class="solid"></line>
  <line x1="636" y1="304" x2="636" y2="336" class="solid"></line>
  <polygon points="296,324 304,324 300,336" class="filled"></polygon>
  <line x1="628" y1="336" x2="628" y2="576" class="solid"></line>
  <text x="210" y="364" >Skill</text>
  <text x="258" y="364" >Content</text>
  <line x1="636" y1="352" x2="636" y2="384" class="solid"></line>
  <line x1="620" y1="384" x2="620" y2="400" class="solid"></line>
  <line x1="636" y1="400" x2="636" y2="432" class="solid"></line>
  <line x1="620" y1="432" x2="620" y2="464" class="solid"></line>
  <line x1="636" y1="464" x2="636" y2="480" class="solid"></line>
  <line x1="620" y1="480" x2="620" y2="496" class="solid"></line>
  <line x1="636" y1="496" x2="636" y2="528" class="solid"></line>
  <rect x="48" y="516" width="8" height="8" class="solid filled" rx="0"></rect>
  <rect x="56" y="516" width="8" height="8" class="solid filled" rx="0"></rect>
  <text x="74" y="524" >Example</text>
  <text x="50" y="540" >CREATE</text>
  <text x="106" y="540" >MICROFLOW</text>
  <line x1="620" y1="528" x2="620" y2="544" class="solid"></line>
  <text x="50" y="556" >RETURNS</text>
  <text x="114" y="556" >Boolean</text>
  <line x1="636" y1="544" x2="636" y2="576" class="solid"></line>
  <text x="50" y="572" >BEGIN</text>
  <text x="66" y="588" >IF</text>
  <text x="90" y="588" >$Customer</text>
  <line x1="168" y1="576" x2="160" y2="592" class="solid"></line>
  <text x="170" y="588" >Email</text>
  <line x1="612" y1="576" x2="612" y2="592" class="solid"></line>
  <line x1="620" y1="576" x2="620" y2="592" class="solid"></line>
  <text x="66" y="604" >THEN</text>
  <line x1="628" y1="592" x2="628" y2="720" class="solid"></line>
  <line x1="636" y1="592" x2="636" y2="608" class="solid"></line>
  <text x="82" y="620" >VALIDATION</text>
  <text x="170" y="620" >FEEDBACK</text>
  <text x="242" y="620" >$Customer</text>
  <text x="322" y="620" >MEMBER</text>
  <text x="378" y="620" >Email</text>
  <line x1="620" y1="608" x2="620" y2="640" class="solid"></line>
  <text x="98" y="636" >MESSAGE</text>
  <text x="162" y="636" >&#39;Please</text>
  <text x="226" y="636" >enter</text>
  <text x="274" y="636" >a</text>
  <text x="290" y="636" >valid</text>
  <text x="338" y="636" >email</text>
  <text x="386" y="636" >address&#39;;</text>
  <text x="82" y="652" >RETURN</text>
  <text x="138" y="652" >false;</text>
  <line x1="636" y1="640" x2="636" y2="704" class="solid"></line>
  <text x="66" y="668" >END</text>
  <text x="98" y="668" >IF;</text>
  <text x="66" y="684" >RETURN</text>
  <text x="122" y="684" >true;</text>
  <text x="50" y="700" >END;</text>
  <line x1="300" y1="720" x2="300" y2="740" class="solid"></line>
  <line x1="636" y1="720" x2="636" y2="752" class="solid"></line>
  <polygon points="296,740 304,740 300,752" class="filled"></polygon>
  <text x="210" y="780" >AI</text>
  <text x="234" y="780" >Generation</text>
  <path d="M 328,768 A 16,16 0,0,0 328,784" class="nofill"></path>
  <text x="330" y="780" >with</text>
  <text x="370" y="780" >skill</text>
  <text x="418" y="780" >context</text>
  <path d="M 472,768 A 16,16 0,0,1 472,784" class="nofill"></path>
  <line x1="636" y1="768" x2="636" y2="800" class="solid"></line>
  <line x1="620" y1="800" x2="620" y2="816" class="solid"></line>
  <line x1="636" y1="816" x2="636" y2="864" class="solid"></line>
  <line x1="620" y1="864" x2="620" y2="912" class="solid"></line>
  <line x1="636" y1="912" x2="636" y2="960" class="solid"></line>
  <line x1="620" y1="960" x2="620" y2="1008" class="solid"></line>
  <line x1="636" y1="1008" x2="636" y2="1056" class="solid"></line>
  <line x1="620" y1="1056" x2="620" y2="1120" class="solid"></line>
  <line x1="636" y1="1120" x2="636" y2="1200" class="solid"></line>
  <text x="66" y="1180" >RETURN</text>
  <text x="50" y="1196" >END;</text>
  <text x="50" y="396" >#</text>
  <text x="66" y="396" >Validation</text>
  <text x="154" y="396" >Microflow</text>
  <text x="234" y="396" >Skill</text>
  <rect x="48" y="420" width="8" height="8" class="solid filled" rx="0"></rect>
  <rect x="56" y="420" width="8" height="8" class="solid filled" rx="0"></rect>
  <text x="74" y="428" >Pattern</text>
  <line x1="48" y1="440" x2="56" y2="440" class="solid"></line>
  <text x="66" y="444" >Name:</text>
  <text x="114" y="444" >VAL</text>
  <line x1="136" y1="448" x2="144" y2="448" class="solid"></line>
  <text x="146" y="444" >{EntityName}</text>
  <line x1="48" y1="456" x2="56" y2="456" class="solid"></line>
  <text x="66" y="460" >Parameter:</text>
  <text x="154" y="460" >$ObjectToValidate:</text>
  <line x1="48" y1="472" x2="56" y2="472" class="solid"></line>
  <text x="66" y="476" >Returns:</text>
  <text x="138" y="476" >Boolean</text>
  <line x1="48" y1="488" x2="56" y2="488" class="solid"></line>
  <text x="66" y="492" >Use</text>
  <text x="98" y="492" >VALIDATION</text>
  <text x="186" y="492" >FEEDBACK</text>
  <text x="306" y="460" >{Entity}</text>
  <text x="258" y="492" >for</text>
  <text x="290" y="492" >errors</text>
  <text x="186" y="540" >CRM.VAL</text>
  <line x1="240" y1="544" x2="248" y2="544" class="solid"></line>
  <text x="250" y="540" >Customer</text>
  <path d="M 328,528 A 16,16 0,0,0 328,544" class="nofill"></path>
  <text x="330" y="540" >$Customer:</text>
  <text x="418" y="540" >Customer</text>
  <path d="M 480,528 A 16,16 0,0,1 480,544" class="nofill"></path>
  <line x1="216" y1="582" x2="224" y2="582" class="solid"></line>
  <line x1="216" y1="586" x2="224" y2="586" class="solid"></line>
  <text x="234" y="588" >empty</text>
  <text x="282" y="588" >OR</text>
  <text x="306" y="588" >NOT</text>
  <text x="338" y="588" >contains</text>
  <path d="M 408,576 A 16,16 0,0,0 408,592" class="nofill"></path>
  <text x="410" y="588" >$Customer</text>
  <line x1="488" y1="576" x2="480" y2="592" class="solid"></line>
  <text x="490" y="588" >Email,</text>
  <text x="546" y="588" >&#39;@&#39;</text>
  <path d="M 568,576 A 16,16 0,0,1 568,592" class="nofill"></path>
  <text x="50" y="812" >CREATE</text>
  <text x="106" y="812" >MICROFLOW</text>
  <text x="50" y="828" >RETURNS</text>
  <text x="114" y="828" >Boolean</text>
  <text x="50" y="844" >BEGIN</text>
  <line x1="64" y1="856" x2="80" y2="856" class="solid"></line>
  <text x="90" y="860" >Email</text>
  <text x="138" y="860" >validation</text>
  <text x="66" y="876" >IF</text>
  <text x="90" y="876" >$Customer</text>
  <line x1="168" y1="864" x2="160" y2="880" class="solid"></line>
  <text x="170" y="876" >Email</text>
  <line x1="216" y1="870" x2="224" y2="870" class="solid"></line>
  <line x1="216" y1="874" x2="224" y2="874" class="solid"></line>
  <text x="234" y="876" >empty</text>
  <text x="282" y="876" >THEN</text>
  <text x="82" y="892" >VALIDATION</text>
  <text x="170" y="892" >FEEDBACK</text>
  <text x="242" y="892" >$Customer</text>
  <text x="322" y="892" >MEMBER</text>
  <text x="98" y="908" >MESSAGE</text>
  <text x="162" y="908" >&#39;Email</text>
  <text x="218" y="908" >is</text>
  <text x="242" y="908" >required&#39;;</text>
  <text x="82" y="924" >RETURN</text>
  <text x="138" y="924" >false;</text>
  <text x="66" y="940" >END</text>
  <text x="98" y="940" >IF;</text>
  <text x="186" y="812" >CRM.VAL</text>
  <line x1="240" y1="816" x2="248" y2="816" class="solid"></line>
  <text x="250" y="812" >Customer</text>
  <path d="M 328,800 A 16,16 0,0,0 328,816" class="nofill"></path>
  <text x="330" y="812" >$Customer:</text>
  <text x="418" y="812" >CRM.Customer</text>
  <path d="M 512,800 A 16,16 0,0,1 512,816" class="nofill"></path>
  <text x="378" y="892" >Email</text>
  <text x="66" y="972" >IF</text>
  <text x="90" y="972" >NOT</text>
  <text x="122" y="972" >contains</text>
  <path d="M 192,960 A 16,16 0,0,0 192,976" class="nofill"></path>
  <text x="194" y="972" >$Customer</text>
  <line x1="272" y1="960" x2="264" y2="976" class="solid"></line>
  <text x="274" y="972" >Email,</text>
  <text x="330" y="972" >&#39;@&#39;</text>
  <path d="M 352,960 A 16,16 0,0,1 352,976" class="nofill"></path>
  <text x="370" y="972" >THEN</text>
  <text x="82" y="988" >VALIDATION</text>
  <text x="170" y="988" >FEEDBACK</text>
  <text x="242" y="988" >$Customer</text>
  <text x="322" y="988" >MEMBER</text>
  <text x="378" y="988" >Email</text>
  <text x="98" y="1004" >MESSAGE</text>
  <text x="162" y="1004" >&#39;Please</text>
  <text x="226" y="1004" >enter</text>
  <text x="274" y="1004" >a</text>
  <text x="290" y="1004" >valid</text>
  <text x="338" y="1004" >email</text>
  <text x="386" y="1004" >address&#39;;</text>
  <text x="82" y="1020" >RETURN</text>
  <text x="138" y="1020" >false;</text>
  <text x="66" y="1036" >END</text>
  <text x="98" y="1036" >IF;</text>
  <line x1="64" y1="1064" x2="80" y2="1064" class="solid"></line>
  <text x="90" y="1068" >Credit</text>
  <text x="146" y="1068" >limit</text>
  <text x="194" y="1068" >validation</text>
  <text x="66" y="1084" >IF</text>
  <text x="90" y="1084" >$Customer</text>
  <line x1="168" y1="1072" x2="160" y2="1088" class="solid"></line>
  <text x="170" y="1084" >CreditLimit</text>
  <text x="266" y="1084" >&lt;</text>
  <text x="282" y="1084" >0</text>
  <text x="298" y="1084" >THEN</text>
  <text x="82" y="1100" >VALIDATION</text>
  <text x="170" y="1100" >FEEDBACK</text>
  <text x="242" y="1100" >$Customer</text>
  <text x="322" y="1100" >MEMBER</text>
  <text x="378" y="1100" >CreditLimit</text>
  <text x="98" y="1116" >MESSAGE</text>
  <text x="162" y="1116" >&#39;Credit</text>
  <text x="226" y="1116" >limit</text>
  <text x="274" y="1116" >cannot</text>
  <text x="330" y="1116" >be</text>
  <text x="354" y="1116" >negative&#39;;</text>
  <text x="82" y="1132" >RETURN</text>
  <text x="138" y="1132" >false;</text>
  <text x="66" y="1148" >END</text>
  <text x="98" y="1148" >IF;</text>
  <text x="122" y="1180" >true;</text>
  <text x="50" y="92" >Add validation to the Customer entity for email and credit limit</text>
  <text x="314" y="284" >validation</text>
  <g>
    <line x1="4" y1="8" x2="628" y2="8" class="solid"></line>
    <line x1="4" y1="8" x2="4" y2="1224" class="solid"></line>
    <line x1="628" y1="752" x2="628" y2="1224" class="solid"></line>
    <line x1="4" y1="1224" x2="628" y2="1224" class="solid"></line>
  </g>
  <g>
    <line x1="28" y1="56" x2="620" y2="56" class="solid"></line>
    <line x1="28" y1="56" x2="28" y2="104" class="solid"></line>
    <line x1="620" y1="80" x2="620" y2="104" class="solid"></line>
    <line x1="28" y1="104" x2="620" y2="104" class="solid"></line>
  </g>
  <g>
    <line x1="28" y1="152" x2="620" y2="152" class="solid"></line>
    <line x1="28" y1="152" x2="28" y2="296" class="solid"></line>
    <line x1="620" y1="272" x2="620" y2="296" class="solid"></line>
    <line x1="28" y1="296" x2="620" y2="296" class="solid"></line>
  </g>
  <g>
    <line x1="28" y1="344" x2="620" y2="344" class="solid"></line>
    <line x1="28" y1="344" x2="28" y2="712" class="solid"></line>
    <line x1="28" y1="712" x2="620" y2="712" class="solid"></line>
  </g>
  <g>
    <line x1="28" y1="760" x2="620" y2="760" class="solid"></line>
    <line x1="28" y1="760" x2="28" y2="1208" class="solid"></line>
    <line x1="28" y1="1208" x2="620" y2="1208" class="solid"></line>
  </g>
</svg>