<svg xmlns="http://www.w3.org/2000/svg" width="392" height="112" class="svgbob">
  <style>.svgbob line, .svgbob path, .svgbob circle, .svgbob rect, .svgbob polygon {
  stroke: black;
  stroke-width: 2;
  stroke-opacity: 1;
  fill-opacity: 1;
  stroke-linecap: round;
  stroke-linejoin: miter;
}

.svgbob text {
  white-space: pre;
  fill: black;
  font-family: Iosevka Fixed, monospace;
  font-size: 14px;
}

.svgbob rect.backdrop {
  stroke: none;
  fill: white;
}

.svgbob .broken {
  stroke-dasharray: 8;
}

.svgbob .filled {
  fill: black;
}

.svgbob .bg_filled {
  fill: white;
  stroke-width: 1;
}

.svgbob .nofill {
  fill: white;
}

.svgbob .end_marked_arrow {
  marker-end: url(#arrow);
}

.svgbob .start_marked_arrow {
  marker-start: url(#arrow);
}

.svgbob .end_marked_diamond {
  marker-end: url(#diamond);
}

.svgbob .start_marked_diamond {
  marker-start: url(#diamond);
}

.svgbob .end_marked_circle {
  marker-end: url(#circle);
}

.svgbob .start_marked_circle {
  marker-start: url(#circle);
}

.svgbob .end_marked_open_circle {
  marker-end: url(#open_circle);
}

.svgbob .start_marked_open_circle {
  marker-start: url(#open_circle);
}

.svgbob .end_marked_big_open_circle {
  marker-end: url(#big_open_circle);
}

.svgbob .start_marked_big_open_circle {
  marker-start: url(#big_open_circle);
}

</style>
  <defs>
    <marker id="arrow" viewBox="-2 -2 8 8" refX="4" refY="2" markerWidth="7" markerHeight="7" orient="auto-start-reverse">
      <polygon points="0,0 0,4 4,2 0,0"></polygon>
    </marker>
    <marker id="diamond" viewBox="-2 -2 8 8" refX="4" refY="2" markerWidth="7" markerHeight="7" orient="auto-start-reverse">
      <polygon points="0,2 2,0 4,2 2,4 0,2"></polygon>
    </marker>
    <marker id="circle" viewBox="0 0 8 8" refX="4" refY="4" markerWidth="7" markerHeight="7" orient="auto-start-reverse">
      <circle cx="4" cy="4" r="2" class="filled"></circle>
    </marker>
    <marker id="open_circle" viewBox="0 0 8 8" refX="4" refY="4" markerWidth="7" markerHeight="7" orient="auto-start-reverse">
      <circle cx="4" cy="4" r="2" class="bg_filled"></circle>
    </marker>
    <marker id="big_open_circle" viewBox="0 0 8 8" refX="4" refY="4" markerWidth="7" markerHeight="7" orient="auto-start-reverse">
      <circle cx="4" cy="4" r="3" class="bg_filled"></circle>
    </marker>
  </defs>
  <rect class="backdrop" x="0" y="0" width="392" height="112"></rect>
  <text x="2" y="12" >Entity:</text>
  <text x="66" y="12" >Customer</text>
  <text x="18" y="28" >Id:</text>
  <text x="50" y="28" >Integer</text>
  <path d="M 120,16 A 16,16 0,0,0 120,32" class="nofill"></path>
  <text x="122" y="28" >Auto</text>
  <text x="18" y="44" >Name:</text>
  <text x="66" y="44" >Text</text>
  <path d="M 112,32 A 16,16 0,0,0 112,48" class="nofill"></path>
  <text x="114" y="44" >200</text>
  <path d="M 136,32 A 16,16 0,0,1 136,48" class="nofill"></path>
  <text x="18" y="60" >Email:</text>
  <text x="74" y="60" >Text</text>
  <path d="M 120,48 A 16,16 0,0,0 120,64" class="nofill"></path>
  <text x="122" y="60" >200</text>
  <path d="M 144,48 A 16,16 0,0,1 144,64" class="nofill"></path>
  <text x="18" y="76" >IsActive:</text>
  <text x="98" y="76" >Boolean</text>
  <path d="M 168,64 A 16,16 0,0,0 168,80" class="nofill"></path>
  <text x="170" y="76" >Default:</text>
  <text x="242" y="76" >True</text>
  <path d="M 272,64 A 16,16 0,0,1 272,80" class="nofill"></path>
  <text x="18" y="92" >CreatedOn:</text>
  <text x="106" y="92" >DateTime</text>
  <path d="M 184,80 A 16,16 0,0,0 184,96" class="nofill"></path>
  <text x="186" y="92" >Default:</text>
  <text x="258" y="92" >CurrentDateTime</text>
  <path d="M 376,80 A 16,16 0,0,1 376,96" class="nofill"></path>
  <text x="162" y="28" >Number</text>
  <path d="M 208,16 A 16,16 0,0,1 208,32" class="nofill"></path>
</svg>